<?xml version="1.0" encoding="UTF-8"?>
<svg id="Capa_1" data-name="Capa 1" xmlns="http://www.w3.org/2000/svg" xmlns:xlink="http://www.w3.org/1999/xlink" viewBox="0 0 1920 1261.6">
  <defs>
    <style>
      .cls-1 {
        fill: url(#Degradado_sin_nombre_4-2);
      }

      .cls-1, .cls-2 {
        isolation: isolate;
        opacity: .3;
      }

      .cls-2 {
        fill: url(#Degradado_sin_nombre_4);
      }

      .cls-3 {
        clip-path: url(#clippath);
      }

      .cls-4 {
        fill: none;
      }
    </style>
    <clipPath id="clippath">
      <rect class="cls-4" x="880.8" width="1039.2" height="1261.51"/>
    </clipPath>
    <linearGradient id="Degradado_sin_nombre_4" data-name="Degradado sin nombre 4" x1="1.3" y1="1280.81" x2=".3" y2="1280.81" gradientTransform="translate(564 1383558.86) scale(1039.2 -1079.8)" gradientUnits="userSpaceOnUse">
      <stop offset="0" stop-color="#e14444"/>
      <stop offset=".14" stop-color="#525252"/>
      <stop offset=".37" stop-color="#8f8f8f"/>
      <stop offset=".57" stop-color="#bfbfbf"/>
      <stop offset=".76" stop-color="#e2e2e2"/>
      <stop offset=".9" stop-color="#f7f7f7"/>
      <stop offset="1" stop-color="#fff"/>
    </linearGradient>
    <linearGradient id="Degradado_sin_nombre_4-2" data-name="Degradado sin nombre 4" y1="1280.81" y2="1280.81" gradientTransform="translate(564 1384638.86) scale(1039.2 -1079.8)" xlink:href="#Degradado_sin_nombre_4"/>
  </defs>
  <g class="cls-3">
    <g id="Cuadrícula_de_repetición_4" data-name="Cuadrícula de repetición 4">
      <path id="trama" class="cls-2" d="m1920,899.6l-.2-.3h0l-14.6-25.4,14.6-25.4-.5-.3.5-.3-14.6-25.4,14.6-25.4h-.1l.2-.3-14.8-25.6,14.8-25.7-.2-.3h0l-14.6-25.4,14.6-25.4-.5-.3.5-.3-14.6-25.4,14.6-25.4h-.1l.2-.3-14.8-25.6,14.8-25.7-.2-.3h0l-14.6-25.4,14.6-25.4-.5-.3.5-.3-14.6-25.4,14.6-25.4h-.1l.2-.3-14.8-25.6,14.8-25.7-.2-.3h0l-14.6-25.4,14.6-25.4-.5-.3.5-.3-14.6-25.4,14.6-25.4h-.1l.2-.3-14.8-25.6,14.8-25.7-.2-.3h0l-14.6-25.4,14.6-25.4-.5-.3.5-.3-14.6-25.4,14.6-25.4h-.1l.2-.3-14.8-25.6,14.8-25.7-.2-.3h0l-14.6-25.4,14.6-25.4-.5-.3.5-.3-14.6-25.4,14.6-25.4h-.1l.2-.3-15.2-26.3h-30.3l-14.8,25.7h-29l-14.8-25.7h-30.3l-14.8,25.7h-29l-14.8-25.7h-30.3l-14.8,25.7h-29l-14.8-25.7h-30.3l-14.8,25.7h-29l-14.8-25.7h-30.3l-14.8,25.7h-29l-14.8-25.7h-30.3l-14.8,25.7h-29l-14.8-25.7h-30.3l-14.8,25.7h-29l-14.8-25.7h-30.3l-14.8,25.7h-29l-14.8-25.7h-30.3l-14.8,25.7h-29l-14.8-25.7h-30.3l-14.8,25.7h-29l-14.8-25.7h-30.3l-14.8,25.7h-29l-14.8-25.7h-30.3l-15.2,26.3.2.3h0l14.6,25.4-14.6,25.4.5.3-.5.3,14.6,25.4-14.6,25.4h0l-.2.3,14.8,25.6-14.8,25.7.2.3h0l14.6,25.4-14.6,25.4.5.3-.5.3,14.6,25.4-14.6,25.4h0l-.2.3,14.8,25.6-14.8,25.7.2.3h0l14.6,25.4-14.6,25.4.5.3-.5.3,14.6,25.4-14.6,25.4h0l-.2.3,14.8,25.6-14.8,25.7.2.3h0l14.6,25.4-14.6,25.4.5.3-.5.3,14.6,25.4-14.6,25.4h0l-.2.3,14.8,25.6-14.8,25.7.2.3h0l14.6,25.4-14.6,25.4.5.3-.5.3,14.6,25.4-14.6,25.4h0l-.2.3,14.8,25.6-14.8,25.7.2.3h0l14.6,25.4-14.6,25.4.5.3-.5.3,14.6,25.4-14.6,25.4h0l-.2.3,14.8,25.6-14.8,25.7.2.3h0l14.6,25.4-14.6,25.4.5.3-.5.3,14.6,25.4-14.6,25.4h0l-.2.3,15.1,26.1h30.3l14.8-25.7h29l14.9,25.7h30.3l14.8-25.7h29l14.8,25.7h30.3l14.8-25.7h29l14.9,25.7h30.3l14.8-25.7h29l14.9,25.7h30.3l14.8-25.7h29l14.8,25.7h30.3l14.8-25.7h29l14.9,25.7h30.3l14.8-25.7h29l14.9,25.7h30.3l14.8-25.7h29l14.8,25.7h30.3l14.8-25.7h29l14.9,25.7h30.3l14.8-25.7h29l14.9,25.7h30.3l14.8-25.7h29l14.8,25.7h30.3l15.2-26.3-.2-.3h0l-14.6-25.4,14.6-25.4-.5-.3.5-.3-14.6-25.4,14.6-25.4h-.1l.2-.3-14.8-25.6,14.9-25.5Zm-1.4,0l-14.5,25.1h-28.9l-14.5-25.1,14.5-25.1h28.9l14.5,25.1Zm-44.5-846.9l-14.5,25.1h-29l-14.5-25.1,14.5-25.1h29l14.5,25.1Zm-58.9.6l14.5,25.1-14.5,25.1h-29l-14.5-25.1,14.5-25.1h29Zm-266.9,0l14.5,25.1-14.5,25.1h-29l-14.5-25.1,14.5-25.1h29Zm-607.3-25.6h29l14.5,25.1-14.5,25.1h-29l-14.5-25.1,14.5-25.1Zm-14.4,1000.2l14.4-25.1h29l14.5,25.1-14.5,25.1h-29l-14.4-25.1Zm547.2,23.3l-13.5-23.3,14.5-25.1h29l14.5,25.1-14.5,25.1h-29l-1-1.8Zm45.5-23.9l-14.5-25.1,14.5-25.1h29l14.5,25.1-14.5,25.1h-29Zm221.4,23.9l-13.5-23.3,14.5-25.1h29l14.5,25.1-14.5,25.1h-29l-1-1.8Zm118.9,1.8h-29l-14.5-25.1,14.6-25.1h29l14.5,25.1-14.6,25.1Zm-29.9-923.3l-14.5,25.1h-29l-14.5-25.1,14.5-25.1h29l14.5,25.1Zm-44.5-25.6l-14.5,25.1h-29l-1.1-2-13.3-23.1,14.5-25.1h29l14.4,25.1Zm-89,0l-14.5,25.1h-28.9l-14.5-25.1,14.5-25.1h28.9l14.5,25.1Zm-89,0l-14.5,25.1h-29l-14.5-25.1,14.5-25.1h29l14.5,25.1Zm-58.9.5l1.1,2,13.3,23.1-14.5,25.1h-29l-14.5-25.1,14.5-25.1h29.1Zm-30-.5l-14.5,25.1h-29l-1.1-2-13.3-23.1,14.5-25.1h29l14.4,25.1Zm-89,0l-14.5,25.1h-28.9l-14.5-25.1,14.5-25.1h28.9l14.5,25.1Zm-89,0l-14.5,25.1h-29l-14.5-25.1,14.5-25.1h29l14.5,25.1Zm-88.9,0l-14.5,25.1h-29l-14.5-25.1,14.5-25.1h29l14.5,25.1Zm-89,0l-14.5,25.1h-29l-14.5-25.1,14.5-25.1h29l14.5,25.1Zm-89,0l-14.5,25.1h-29l-14.5-25.1,14.5-25.1h29l14.5,25.1Zm-58.9.5l14.5,25.1-14.5,25.1h-29l-14.5-25.1,14.5-25.1h29Zm-43.5,846.3l14.5-25.1h29l14.5,25.1-14.5,25.1h-29l-14.5-25.1Zm44.5,25.7l14.5-25.1h29l14.5,25.1-14.5,25.1h-29l-14.5-25.1Zm89,0l14.5-25.1h29l14.5,25.1-14.5,25.1h-29l-14.5-25.1Zm89,0l14.5-25.1h29l14.5,25.1-14.5,25.1h-29l-14.5-25.1Zm88.9,0l14.5-25.1h29l14.5,25.1-14.5,25.1h-29l-14.5-25.1Zm89,0l14.5-25.1h28.9l14.5,25.1-14.5,25.1h-28.9l-14.5-25.1Zm89,0l14.5-25.1h29l14.5,25.1-14.5,25.1h-29l-14.5-25.1Zm58.9-.6l-1.1-1.9-13.4-23.2,14.5-25.1h29l14.5,25.1-14.5,25.1h-29Zm30,.6l14.5-25.1h29l14.5,25.1-14.5,25.1h-29l-14.5-25.1Zm89,0l14.5-25.1h28.9l14.5,25.1-14.5,25.1h-28.9l-14.5-25.1Zm89,0l14.5-25.1h29l14.5,25.1-14.5,25.1h-29l-14.5-25.1Zm58.9-.6l-1.1-1.9-13.4-23.2,14.5-25.1h29l14.5,25.1-14.5,25.1h-29Zm43.5-76.4l-14.5,25.1h-29l-14.5-25.1,14.5-25.1h29l14.5,25.1Zm-59-769.3l14.4,25-14.5,25.1h-29l-14.4-25,14.5-25.1h29Zm-206.9,0h29l14.4,25-14.5,25.1h-29l-14.4-25,14.5-25.1Zm-59.9,0l14.4,25-14.5,25.1h-29l-14.4-25,14.5-25.1h29Zm-.1,820h-29l-14.4-25,14.5-25.1h29l14.4,25-14.5,25.1Zm266.9,0h-29l-14.4-25,14.5-25.1h29l14.4,25-14.5,25.1Zm-30-717.9l-14.5,25.1h-29l-14.5-25.1,14.5-25.1h29l14.5,25.1Zm-192.4-25.1l14.5,25.1-14.5,25.1h-29l-14.5-25.1,14.5-25.1h29Zm-444.8,0l14.5,25.1-14.5,25.1h-29l-14.5-25.1,14.5-25.1h29Zm-43.5,641l14.5-25.1h29l14.5,25.1-14.5,25.1h-29l-14.5-25.1Zm414.8,50.7l-1-1.7-13.5-23.3,14.5-25.1h29l14.5,25.1-14.5,25.1h-29v-.1Zm44.5-25.7l-14.5-25.1,14.5-25.1h29l14.5,25.1-14.5,25.1h-29Zm133.5,25.7l-14.5-25.1,14.5-25.1h28.9l14.5,25.1-14.5,25.1h-28.9Zm43.4-641l-14.5,25.1h-28.9l-14.5-25.1,14.5-25.1h28.9l14.5,25.1Zm-89,0l-14.5,25.1h-29l-14.5-25.1,14.5-25.1h29l14.5,25.1Zm-58.9.6l1,1.7,13.5,23.3-14.5,25.1h-29l-14.5-25.1,14.5-25.1h29v.1Zm-30-.6l-14.5,25.1h-29l-1-1.7-13.5-23.3,14.5-25.1h29l14.5,25Zm-89,0l-14.5,25.1h-28.9l-14.5-25.1,14.5-25.1h28.9l14.5,25.1Zm-89,0l-14.5,25.1h-29l-14.5-25.1,14.5-25.1h29l14.5,25.1Zm-88.9,0l-14.5,25.1h-29l-14.5-25.1,14.5-25.1h29l14.5,25.1Zm-89,0l-14.5,25.1h-29l-14.5-25.1,14.5-25.1h29l14.5,25.1Zm-57.9,564.6l14.5-25.1h29l14.5,25.1-14.5,25.1h-29l-14.5-25.1Zm89,0l14.5-25.1h29l14.5,25.1-14.5,25.1h-29l-14.5-25.1Zm88.9,0l14.5-25.1h29l14.5,25.1-14.5,25.1h-29l-14.5-25.1Zm89,0l14.5-25.1h28.9l14.5,25.1-14.5,25.1h-28.9l-14.5-25.1Zm89,0l14.5-25.1h29l14.5,25.1-14.5,25.1h-29l-14.5-25.1Zm58.9-.6l-1-1.7-13.5-23.3,14.5-25.1h29l14.5,25.1-14.5,25.1h-29v-.1Zm30,.6l14.5-25.1h29l14.5,25.1-14.5,25.1h-29l-14.5-25.1Zm59-.6l-14.5-25.1,14.5-25.1h29l14.5,25.1-14.5,25.1h-29Zm43.4-487l-14.5,25.1h-29l-14.5-25.1,14.5-25.1h29l14.5,25.1Zm-87.9-50.7h29l14.4,25-14.5,25.1h-29l-14.4-25,14.5-25.1Zm-59.9,0l14.4,25-14.5,25.1h-29l-14.4-25,14.5-25.1h29Zm-340.5,25.6h29l14.5,25.1-14.5,25.1h-29l-14.5-25.1,14.5-25.1Zm-14.4,435.7l14.5-25.1h29l14.5,25.1-14.5,25.1h-29l-14.5-25.1Zm354.8,50.7h-29l-14.4-25,14.5-25.1h29l14.4,25-14.5,25.1Zm103.4-435.6l-14.5,25.1h-29l-14.5-25.1,14.5-25.1h29l14.5,25.1Zm-58.9.6l14.5,25.1-14.5,25.1h-29l-14.5-25.1,14.5-25.1h29Zm-311.4-25.7l14.5,25.1-14.5,25.1h-29l-14.5-25.1,14.5-25.1h29Zm-43.4,384.3l14.5-25.1h29l14.5,25.1-14.5,25.1h-29l-14.5-25.1Zm281.3,25.1l-1-1.7-13.5-23.3,14.5-25.1h29l14.5,25.1-14.5,25.1h-29v-.1Zm44.5-25.6l-14.5-25.1,14.5-25.1h29l14.5,25.1-14.5,25.1h-29Zm43.5-281.7l-14.5,25.1h-29l-14.5-25.1,14.5-25.1h29l1,1.7,13.5,23.4Zm-44.5-25.7l-14.5,25.1h-29l-1-1.7-13.5-23.3,14.5-25.1h29l14.5,25Zm-89,0l-14.5,25.1h-28.9l-14.5-25.1,14.5-25.1h28.9l14.5,25.1Zm-89,0l-14.5,25.1h-29l-14.5-25.1,14.5-25.1h29l14.5,25.1Zm-58.9.6l14.5,25.1-14.5,25.1h-29l-14.5-25.1,14.5-25.1h29Zm-43.5,230.4l14.5-25.1h29l14.5,25.1-14.5,25.1h-29l-14.5-25.1Zm44.5,25.6l14.5-25.1h29l14.5,25.1-14.5,25.1h-29l-14.5-25.1Zm89,0l14.5-25.1h28.9l14.5,25.1-14.5,25.1h-28.9l-14.5-25.1Zm89,0l14.5-25.1h29l14.5,25.1-14.5,25.1h-29l-14.5-25.1Zm43.5-230.3l14.4,25-14.5,25.1h-29l-14.4-25,14.5-25.1h29Zm-44.6,178.4h-29l-14.5-25.1,14.5-25.1h29l14.5,25.1-14.5,25.1Zm14.5-76.4l-14.5,25.1h-29l-14.5-25.1,14.5-25.1h29l14.5,25.1Zm-103.4-25.1l14.5,25.1-14.5,25.1h-29l-14.5-25.1,14.5-25.1h29Zm15.5,75.8l-14.5-25.1,14.5-25.1h28.9l14.5,25.1-14.5,25.1h-28.9,0Zm28.9-101.4l14.5,25.1-14.5,25.1h-28.9l-14.5-25.1,14.5-25.1h28.9Zm14.5,127.6l-14.5,25.1h-29l-14.4-25,14.5-25.1h29l14.4,25Zm-58.9-.5h-28.9l-14.5-25.1,14.5-25.1h28.9l14.5,25.1-14.5,25.1Zm-30,.5l-14.5,25.1h-29l-14.4-25,14.5-25.1h29l14.4,25Zm-58-51.2l14.5-25.1h29l14.5,25.1-14.5,25.1h-29l-14.5-25.1Zm0-51.3l14.5-25.1h29l14.5,25.1-14.5,25.1h-29l-14.5-25.1Zm0-51.3l14.5-25.1h29l14.4,25-14.5,25.1h-29l-14.4-25Zm59,.5h29l14.5,25.1-14.5,25.1h-29l-14.5-25.1,14.5-25.1Zm30-.5l14.5-25.1h29l14.4,25-14.5,25.1h-29l-14.4-25Zm58.9.5h28.9l14.5,25.1-14.5,25.1h-28.9l-14.5-25.1,14.5-25.1Zm88,50.8l-14.5,25.1h-29l-14.5-25.1,14.5-25.1h29l14.5,25.1Zm0,51.3l-14.5,25.1h-29l-1.1-2-13.3-23.1,14.5-25.1h29l14.4,25.1Zm0,51.2l-14.5,25.1h-29l-14.4-25,14.5-25.1h29l14.4,25Zm-88,50.8l-14.5-25.1,14.5-25.1h28.9l14.5,25.1-14.5,25.1h-28.9Zm-88.9,0l-14.5-25.1,14.5-25.1h29l14.5,25.1-14.5,25.1h-29Zm-103.4-76.4l14.5-25.1h29l14.5,25.1-14.5,25.1h-29l-14.5-25.1Zm-.1-51.3l14.5-25.1h29l14.5,25.1-14.5,25.1h-29l-14.5-25.1Zm0-51.3l14.5-25.1h29l14.5,25.1-14.5,25.1h-29l-14.5-25.1Zm132.5-76.4l14.5,25.1-14.5,25.1h-28.9l-14.5-25.1,14.5-25.1h28.9Zm88.9,0l14.5,25.1-14.5,25.1h-29l-14.5-25.1,14.5-25.1h29Zm103.4,76.4l-14.5,25.1h-29l-1-1.7-13.5-23.3,14.5-25.1h29l14.5,25Zm.1,51.3l-14.5,25.1h-29l-14.5-25.1,14.5-25.1h29l14.5,25.1Zm0,51.3l-14.5,25.1h-29l-14.5-25.1,14.5-25.1h29l1.1,2,13.4,23.1Zm-.1,51.4l-14.5,25.1h-29l-1.1-2-13.3-23.1,14.5-25.1h29l14.4,25.1Zm-132.4,76.4l-14.5-25.1,14.5-25.1h29l14.5,25.1-14.5,25.1h-29Zm-44.4,25.6l-14.5-25.1,14.5-25.1h28.9l14.5,25.1-14.5,25.1h-28.9Zm-44.5-25.6l-14.5-25.1,14.5-25.1h29l14.5,25.1-14.5,25.1h-29Zm-44.5,25.6l-14.5-25.1,14.5-25.1h29l14.5,25.1-14.5,25.1h-29Zm-44.5-25.6l-14.5-25.1,14.5-25.1h29l14.5,25.1-14.5,25.1h-29Zm-58.9-50.8l14.5-25.1h29l14.5,25.1-14.5,25.1h-29l-14.5-25.1Zm-.1-51.2l14.5-25.1h29l14.4,25-14.5,25.1h-29l-14.4-25Zm.1-51.4l14.5-25.1h29l14.5,25.1-14.5,25.1h-29l-14.5-25.1Zm0-51.3l14.5-25.1h29l14.5,25.1-14.5,25.1h-29l-14.5-25.1Zm-.1-51.3l14.5-25.1h29l14.4,25-14.5,25.1h-29l-14.4-25Zm.1-51.4l14.5-25.1h29l14.5,25.1-14.5,25.1h-29l-14.5-25.1Zm87.9-50.7l14.5,25.1-14.5,25.1h-29l-14.5-25.1,14.5-25.1h29Zm44.5-25.7l14.5,25.1-14.5,25.1h-29l-14.5-25.1,14.5-25.1h29Zm44.5,25.7l14.5,25.1-14.5,25.1h-29l-14.5-25.1,14.5-25.1h29Zm44.4-25.7l14.5,25.1-14.5,25.1h-28.9l-14.5-25.1,14.5-25.1h28.9Zm44.5,25.7l14.5,25.1-14.5,25.1h-29l-14.5-25.1,14.5-25.1h29Zm44.5-25.7l14.5,25.1-14.5,25.1h-29l-14.5-25.1,14.5-25.1h29Zm103.4,76.4l-14.5,25.1h-29l-14.5-25.1,14.5-25.1h29l14.5,25.1Zm.1,51.3l-14.5,25.1h-29l-14.4-25,14.5-25.1h29l14.4,25Zm-.1,51.4l-14.5,25.1h-29l-14.5-25.1,14.5-25.1h29l14.5,25.1Zm0,51.3l-14.5,25.1h-29l-14.5-25.1,14.5-25.1h29l14.5,25.1Zm.1,51.2l-14.5,25.1h-29l-14.4-25,14.5-25.1h29l14.4,25Zm-.1,51.4l-14.5,25.1h-29l-14.5-25.1,14.5-25.1h29l14.5,25.1Zm0,51.3l-14.5,25.1h-29l-14.5-25.1,14.5-25.1h29l14.5,25.1Zm.1,51.3l-14.5,25.1h-29l-14.4-25,14.5-25.1h29l14.4,25Zm-59-.5h-29l-14.5-25.1,14.5-25.1h29l1,1.7,13.5,23.3-14.5,25.2Zm-89,0h-29l-14.5-25.1,14.5-25.1h29l14.5,25.1-14.5,25.1Zm-30,.5l-14.5,25.1h-29l-14.4-25,14.5-25.1h29l14.4,25Zm-58.9-.5h-28.9l-14.5-25.1,14.5-25.1h28.9l14.5,25.1-14.5,25.1Zm-30,.5l-14.5,25.1h-29l-14.4-25,14.5-25.1h29l14.4,25Zm-59-.5h-29l-14.5-25.1,14.5-25.1h29l14.5,25.1-14.5,25.1Zm-30,.5l-14.5,25.1h-29l-14.4-25,14.5-25.1h29l14.4,25Zm-102.5-76.9l14.5-25.1h29l14.5,25.1-14.5,25.1h-29l-14.5-25.1Zm.1-51.3l14.5-25.1h29l14.5,25.1-14.5,25.1h-29l-14.5-25.1Zm0-51.4l14.5-25.1h29l14.5,25.1-14.5,25.1h-29l-14.5-25.1Zm-.1-51.3l14.5-25.1h29l14.5,25.1-14.5,25.1h-29l-14.5-25.1Zm.1-51.3l14.5-25.1h29l14.5,25.1-14.5,25.1h-29l-14.5-25.1Zm0-51.3l14.5-25.1h29l14.5,25.1-14.5,25.1h-29l-14.5-25.1Zm-.1-51.4l14.5-25.1h29l14.5,25.1-14.5,25.1h-29l-14.5-25.1Zm44.5-76.9l14.5-25.1h29l14.4,25-14.5,25.1h-29l-14.4-25Zm59,.5h29l14.5,25.1-14.5,25.1h-29l-14.5-25.1,14.5-25.1Zm30-.5l14.5-25.1h29l14.4,25-14.5,25.1h-29l-14.4-25Zm59,.5h29l14.5,25.1-14.5,25.1h-29l-14.5-25.1,14.5-25.1Zm30-.5l14.5-25.1h29l14.4,25-14.5,25.1h-29l-14.4-25Zm58.9.5h28.9l14.5,25.1-14.5,25.1h-28.9l-14.5-25.1,14.5-25.1Zm89,0h29l14.5,25.1-14.5,25.1h-29l-1-1.7-13.5-23.3,14.5-25.2Zm132.5,76.4l-14.5,25.1h-29l-14.5-25.1,14.5-25.1h29l14.5,25.1Zm-.1,51.4l-14.5,25.1h-28.9l-14.5-25.1,14.5-25.1h28.9l14.5,25.1Zm0,51.3l-14.5,25.1h-29l-14.5-25.1,14.5-25.1h29l14.5,25.1Zm.1,51.3l-14.5,25.1h-29l-14.5-25.1,14.5-25.1h29l14.5,25.1Zm-.1,51.3l-14.5,25.1h-28.9l-14.5-25.1,14.5-25.1h28.9l14.5,25.1Zm0,51.4l-14.5,25.1h-29l-14.5-25.1,14.5-25.1h29l14.5,25.1Zm.1,51.3l-14.5,25.1h-29l-14.5-25.1,14.5-25.1h29l14.5,25.1Zm-.1,51.3l-14.5,25.1h-28.9l-14.5-25.1,14.5-25.1h28.9l14.5,25.1Zm-221.4,76.4l-14.5-25.1,14.5-25.1h28.9l14.5,25.1-14.5,25.1h-28.9Zm-88.9,0l-14.5-25.1,14.5-25.1h29l14.5,25.1-14.5,25.1h-29Zm-89,0l-14.5-25.1,14.5-25.1h29l14.5,25.1-14.5,25.1h-29Zm-89,0l-14.5-25.1,14.5-25.1h29l14.5,25.1-14.5,25.1h-29Zm-58.9-50.7l14.5-25.1h29l14.4,25-14.5,25.1h-29l-14.4-25Zm0-51.4l14.5-25.1h29l14.5,25.1-14.5,25.1h-29l-14.5-25.1Zm0-51.3l14.5-25.1h29l14.5,25.1-14.5,25.1h-29l-14.5-25.1Zm0-51.2l14.5-25.1h29l14.4,25-14.5,25.1h-29l-14.4-25Zm0-51.4l14.5-25.1h29l14.5,25.1-14.5,25.1h-29l-14.5-25.1Zm0-51.3l14.5-25.1h29l14.5,25.1-14.5,25.1h-29l-14.5-25.1Zm0-51.3l14.5-25.1h29l14.4,25-14.5,25.1h-29l-14.4-25Zm0-51.4l14.5-25.1h29l14.5,25.1-14.5,25.1h-29l-14.5-25.1Zm0-51.3l14.5-25.1h29l14.5,25.1-14.5,25.1h-29l-14.5-25.1Zm0-51.3l14.5-25.1h29l14.4,25-14.5,25.1h-29l-14.4-25Zm87.9-50.8l14.5,25.1-14.5,25.1h-29l-14.5-25.1,14.5-25.1h29Zm89,0l14.5,25.1-14.5,25.1h-29l-14.5-25.1,14.5-25.1h29Zm89,0l14.5,25.1-14.5,25.1h-28.9l-14.5-25.1,14.5-25.1h28.9Zm88.9,0l14.5,25.1-14.5,25.1h-29l-14.5-25.1,14.5-25.1h29Zm178,0l14.5,25.1-14.5,25.1h-28.9l-14.5-25.1,14.5-25.1h28.9Zm58.9,50.7l-14.5,25.1h-29l-14.4-25,14.5-25.1h29l14.4,25Zm0,51.4l-14.5,25.1h-28.9l-14.5-25.1,14.5-25.1h28.9l14.5,25.1Zm0,51.3l-14.5,25.1h-28.9l-14.5-25.1,14.5-25.1h28.9l14.5,25.1Zm0,51.3l-14.5,25.1h-29l-14.4-25,14.5-25.1h29l14.4,25Zm0,51.4l-14.5,25.1h-28.9l-14.5-25.1,14.5-25.1h28.9l14.5,25.1Zm0,51.3l-14.5,25.1h-28.9l-14.5-25.1,14.5-25.1h28.9l14.5,25.1Zm0,51.2l-14.5,25.1h-29l-14.4-25,14.5-25.1h29l14.4,25Zm0,51.4l-14.5,25.1h-28.9l-14.5-25.1,14.5-25.1h28.9l14.5,25.1Zm0,51.3l-14.5,25.1h-28.9l-14.5-25.1,14.5-25.1h28.9l14.5,25.1Zm0,51.3l-14.5,25.1h-29l-14.4-25,14.5-25.1h29l14.4,25Zm0,51.4l-14.5,25.1h-28.9l-14.5-25.1,14.5-25.1h28.9l14.5,25.1Zm-88,50.7l-14.5-25.1,14.5-25.1h29l14.5,25.1-14.5,25.1h-29Zm-44.4,25.7l-14.5-25.1,14.5-25.1h29l14.5,25.1-14.5,25.1h-29Zm-133.5-25.7l-14.5-25.1,14.5-25.1h29l14.5,25.1-14.5,25.1h-29Zm-44.4,25.7l-14.5-25.1,14.5-25.1h28.9l14.5,25.1-14.5,25.1h-28.9Zm-44.5-25.7l-14.5-25.1,14.5-25.1h29l14.5,25.1-14.5,25.1h-29Zm-44.5,25.7l-14.5-25.1,14.5-25.1h29l14.5,25.1-14.5,25.1h-29Zm-44.5-25.7l-14.5-25.1,14.5-25.1h29l14.5,25.1-14.5,25.1h-29Zm-44.5,25.7l-14.5-25.1,14.5-25.1h29l14.5,25.1-14.5,25.1h-29Zm-44.5-25.7l-14.5-25.1,14.5-25.1h29l14.5,25.1-14.5,25.1h-29Zm-44.4,25.7l-14.5-25.1,14.5-25.1h29l14.5,25.1-14.5,25.1h-29Zm-59-102.1l14.5-25.1h29l14.5,25.1-14.5,25.1h-29l-14.5-25.1Zm.1-51.3l14.5-25.1h29l14.5,25.1-14.5,25.1h-29l-14.5-25.1Zm-.1-51.3l14.5-25.1h29l14.5,25.1-14.5,25.1h-29l-14.5-25.1Zm0-51.3l14.5-25.1h29l14.5,25.1-14.5,25.1h-29l-14.5-25.1Zm.1-51.4l14.5-25.1h29l14.5,25.1-14.5,25.1h-29l-14.5-25.1Zm-.1-51.3l14.5-25.1h29l14.5,25.1-14.5,25.1h-29l-14.5-25.1Zm0-51.3l14.5-25.1h29l14.5,25.1-14.5,25.1h-29l-14.5-25.1Zm.1-51.3l14.5-25.1h29l14.5,25.1-14.5,25.1h-29l-14.5-25.1Zm-.1-51.4l14.5-25.1h29l14.5,25.1-14.5,25.1h-29l-14.5-25.1Zm0-51.3l14.5-25.1h29l14.5,25.1-14.5,25.1h-29l-14.5-25.1Zm.1-51.3l14.5-25.1h29l14.5,25.1-14.5,25.1h-29l-14.5-25.1Zm87.8-102.1l14.5,25.1-14.5,25.1h-29l-14.5-25.1,14.5-25.1h29Zm44.5,25.7l14.5,25.1-14.5,25.1h-29l-14.5-25.1,14.5-25.1h29Zm44.5-25.7l14.5,25.1-14.5,25.1h-29l-14.5-25.1,14.5-25.1h29Zm44.5,25.7l14.5,25.1-14.5,25.1h-29l-14.5-25.1,14.5-25.1h29Zm44.5-25.7l14.5,25.1-14.5,25.1h-29l-14.5-25.1,14.5-25.1h29Zm44.5,25.7l14.5,25.1-14.5,25.1h-29l-14.5-25.1,14.5-25.1h29Zm44.4-25.7l14.5,25.1-14.5,25.1h-28.9l-14.5-25.1,14.5-25.1h28.9Zm44.5,25.7l14.5,25.1-14.5,25.1h-29l-14.5-25.1,14.5-25.1h29Zm44.5-25.7l14.5,25.1-14.5,25.1h-29l-14.5-25.1,14.5-25.1h29Zm89,0l14.5,25.1-14.5,25.1h-29l-14.5-25.1,14.5-25.1h29Zm44.5,25.7l14.5,25.1-14.5,25.1h-29l-14.5-25.1,14.5-25.1h29Zm44.4-25.7l14.5,25.1-14.5,25.1h-28.9l-14.5-25.1,14.5-25.1h28.9Zm59,102.1l-14.5,25.1h-29l-14.5-25.1,14.5-25.1h29l14.5,25.1Zm-.1,51.3l-14.5,25.1h-29l-14.5-25.1,14.5-25.1h29l14.5,25.1Zm.1,51.3l-14.5,25.1h-29l-14.5-25.1,14.5-25.1h29l14.5,25.1Zm0,51.4l-14.5,25.1h-29l-14.5-25.1,14.5-25.1h29l14.5,25.1Zm-.1,51.3l-14.5,25.1h-29l-14.5-25.1,14.5-25.1h29l14.5,25.1Zm.1,51.3l-14.5,25.1h-29l-14.5-25.1,14.5-25.1h29l14.5,25.1Zm0,51.3l-14.5,25.1h-29l-14.5-25.1,14.5-25.1h29l14.5,25.1Zm-.1,51.4l-14.5,25.1h-29l-14.5-25.1,14.5-25.1h29l14.5,25.1Zm.1,51.3l-14.5,25.1h-29l-14.5-25.1,14.5-25.1h29l14.5,25.1Zm0,51.3l-14.5,25.1h-29l-14.5-25.1,14.5-25.1h29l14.5,25.1Zm-.1,51.3l-14.5,25.1h-29l-14.5-25.1,14.5-25.1h29l14.5,25.1Zm.1,51.4l-14.5,25.1h-29l-14.5-25.1,14.5-25.1h29l14.5,25.1Zm-14.5,76.4h-29l-14.5-25.1,14.5-25.1h29l14.5,25.1-14.5,25.1Zm-30,.5l-14.5,25.1h-29l-14.4-25,14.5-25.1h29l14.4,25Zm-58.9-.5h-28.9l-14.5-25.1,14.5-25.1h28.9l14.5,25.1-14.5,25.1Zm-30,.5l-14.5,25.1h-29l-14.4-25,14.5-25.1h29l14.4,25Zm-59-.5h-29l-14.5-25.1,14.5-25.1h29l1,1.7,13.5,23.3-14.5,25.2Zm-89,0h-29l-14.5-25.1,14.5-25.1h29l14.5,25.1-14.5,25.1Zm-30,.5l-14.5,25.1h-29l-14.4-25,14.5-25.1h29l14.4,25Zm-58.9-.5h-28.9l-14.5-25.1,14.5-25.1h28.9l14.5,25.1-14.5,25.1Zm-30,.5l-14.5,25.1h-29l-14.4-25,14.5-25.1h29l14.4,25Zm-59-.5h-29l-14.5-25.1,14.5-25.1h29l14.5,25.1-14.5,25.1Zm-30,.5l-14.5,25.1h-29l-14.4-25,14.5-25.1h29l14.4,25Zm-59-.5h-29l-14.5-25.1,14.5-25.1h29l14.5,25.1-14.5,25.1Zm-30,.5l-14.5,25.1h-29l-14.4-25,14.5-25.1h29l14.4,25Zm-58.9-.5h-29l-14.5-25.1,14.5-25.1h29l14.5,25.1-14.5,25.1Zm-30,.5l-14.5,25.1h-29l-14.4-25,14.5-25.1h29l14.4,25Zm-58-51.3l14.5-25.1h29l14.5,25.1-14.5,25.1h-29l-14.5-25.1Zm0-51.3l14.5-25.1h29l14.5,25.1-14.5,25.1h-29l-14.5-25.1Zm0-51.3l14.5-25.1h29l14.4,25-14.5,25.1h-29l-14.4-25Zm0-51.4l14.5-25.1h29l14.5,25.1-14.5,25.1h-29l-14.5-25.1Zm0-51.3l14.5-25.1h29l14.5,25.1-14.5,25.1h-29l-14.5-25.1Zm0-51.2l14.5-25.1h29l14.4,25-14.5,25.1h-29l-14.4-25Zm0-51.4l14.5-25.1h29l14.5,25.1-14.5,25.1h-29l-14.5-25.1Zm0-51.3l14.5-25.1h29l14.5,25.1-14.5,25.1h-29l-14.5-25.1Zm0-51.3l14.5-25.1h29l14.4,25-14.5,25.1h-29l-14.4-25Zm0-51.4l14.5-25.1h29l14.5,25.1-14.5,25.1h-29l-14.5-25.1Zm0-51.3l14.5-25.1h29l14.5,25.1-14.5,25.1h-29l-14.5-25.1Zm0-51.3l14.5-25.1h29l14.4,25-14.5,25.1h-29l-14.4-25Zm0-51.4l14.5-25.1h29l14.5,25.1-14.5,25.1h-29l-14.5-25.1Zm0-51.3l14.5-25.1h29l14.5,25.1-14.5,25.1h-29l-14.5-25.1Zm0-51.3l14.5-25.1h29l14.4,25-14.5,25.1h-29l-14.4-25Zm59,.6h29l14.5,25.1-14.5,25.1h-29l-14.5-25.1,14.5-25.1Zm30-.6l14.5-25.1h29l14.4,25-14.5,25.1h-29l-14.4-25Zm58.9.6h29l14.5,25.1-14.5,25.1h-29l-14.5-25.1,14.5-25.1Zm30-.6l14.5-25.1h29l14.4,25-14.5,25.1h-29l-14.4-25Zm59,.6h29l14.5,25.1-14.5,25.1h-29l-14.5-25.1,14.5-25.1Zm30-.6l14.5-25.1h29l14.4,25-14.5,25.1h-29l-14.4-25Zm59,.6h29l14.5,25.1-14.5,25.1h-29l-14.5-25.1,14.5-25.1Zm30-.6l14.5-25.1h29l14.4,25-14.5,25.1h-29l-14.4-25Zm58.9.6h28.9l14.5,25.1-14.5,25.1h-28.9l-14.5-25.1,14.5-25.1Zm89,0h29l14.5,25.1-14.5,25.1h-29l-1-1.7-13.5-23.3,14.5-25.2Zm89,0h29l14.5,25.1-14.5,25.1h-29l-14.5-25.1,14.5-25.1Zm30-.6l14.5-25.1h29l14.4,25-14.5,25.1h-29l-14.4-25Zm58.9.6h29l14.5,25.1-14.5,25.1h-29l-14.5-25.1,14.5-25.1Zm88,50.7l-14.5,25.1h-29l-14.5-25.1,14.5-25.1h29l14.5,25.1Zm0,51.3l-14.5,25.1h-29l-1-1.7-13.5-23.3,14.5-25.1h29l14.5,25Zm0,51.3l-14.5,25.1h-29l-14.4-25,14.5-25.1h29l14.4,25Zm0,51.4l-14.5,25.1h-29l-14.5-25.1,14.5-25.1h29l14.5,25.1Zm0,51.3l-14.5,25.1h-29l-1-1.7-13.5-23.3,14.5-25.1h29l14.5,25Zm0,51.3l-14.5,25.1h-29l-14.4-25,14.5-25.1h29l14.4,25Zm0,51.4l-14.5,25.1h-29l-14.5-25.1,14.5-25.1h29l14.5,25.1Zm0,51.3l-14.5,25.1h-29l-1.1-2-13.3-23.1,14.5-25.1h29l14.4,25.1Zm0,51.2l-14.5,25.1h-29l-14.4-25,14.5-25.1h29l14.4,25Zm0,51.4l-14.5,25.1h-29l-14.5-25.1,14.5-25.1h29l14.5,25.1Zm0,51.3l-14.5,25.1h-29l-1-1.7-13.5-23.3,14.5-25.1h29l14.5,25Zm0,51.3l-14.5,25.1h-29l-14.4-25,14.5-25.1h29l14.4,25Zm0,51.4l-14.5,25.1h-29l-14.5-25.1,14.5-25.1h29l14.5,25.1Zm0,51.3l-14.5,25.1h-29l-1-1.7-13.5-23.3,14.5-25.2h29l14.5,25.1Zm-88,102.1l-14.5-25.1,14.5-25.1h29l14.5,25.1-14.5,25.1h-29Zm-88.9,0l-14.5-25.1,14.5-25.1h29l14.5,25.1-14.5,25.1h-29Zm-178,0l-14.5-25.1,14.5-25.1h28.9l14.5,25.1-14.5,25.1h-28.9Zm-88.9,0l-14.5-25.1,14.5-25.1h29l14.5,25.1-14.5,25.1h-29Zm-89,0l-14.5-25.1,14.5-25.1h29l14.5,25.1-14.5,25.1h-29Zm-89,0l-14.5-25.1,14.5-25.1h29l14.5,25.1-14.5,25.1h-29Zm-88.9,0l-14.5-25.1,14.5-25.1h29l14.5,25.1-14.5,25.1h-29Zm-103.4-76.4l14.5-25.1h29l14.5,25.1-14.5,25.1h-29l-14.5-25.1Zm-.1-51.3l14.5-25.1h29l14.5,25.1-14.5,25.1h-29l-14.5-25.1Zm0-51.4l14.5-25.1h29l14.5,25.1-14.5,25.1h-29l-14.5-25.1Zm.1-51.3l14.5-25.1h29l14.5,25.1-14.5,25.1h-29l-14.5-25.1Zm-.1-51.3l14.5-25.1h29l14.5,25.1-14.5,25.1h-29l-14.5-25.1Zm0-51.3l14.5-25.1h29l14.5,25.1-14.5,25.1h-29l-14.5-25.1Zm.1-51.4l14.5-25.1h29l14.5,25.1-14.5,25.1h-29l-14.5-25.1Zm-.1-51.3l14.5-25.1h29l14.5,25.1-14.5,25.1h-29l-14.5-25.1Zm0-51.3l14.5-25.1h29l14.5,25.1-14.5,25.1h-29l-14.5-25.1Zm.1-51.3l14.5-25.1h29l14.5,25.1-14.5,25.1h-29l-14.5-25.1Zm-.1-51.4l14.5-25.1h29l14.5,25.1-14.5,25.1h-29l-14.5-25.1Zm0-51.3l14.5-25.1h29l14.5,25.1-14.5,25.1h-29l-14.5-25.1Zm.1-51.3l14.5-25.1h29l14.5,25.1-14.5,25.1h-29l-14.5-25.1Zm-.1-51.3l14.5-25.1h29l14.5,25.1-14.5,25.1h-29l-14.5-25.1Zm0-51.4l14.5-25.1h29l14.5,25.1-14.5,25.1h-29l-14.5-25.1Zm132.5-76.4l14.5,25.1-14.5,25.1h-29l-14.5-25.1,14.5-25.1h29Zm88.9,0l14.5,25.1-14.5,25.1h-29l-14.5-25.1,14.5-25.1h29Zm89,0l14.5,25.1-14.5,25.1h-29l-14.5-25.1,14.5-25.1h29Zm89,0l14.5,25.1-14.5,25.1h-28.9l-14.5-25.1,14.5-25.1h28.9Zm88.9,0l14.5,25.1-14.5,25.1h-29l-14.5-25.1,14.5-25.1h29Zm178,0l14.5,25.1-14.5,25.1h-28.9l-14.5-25.1,14.5-25.1h28.9Zm88.9,0l14.5,25.1-14.5,25.1h-29l-14.5-25.1,14.5-25.1h29Zm103.4,76.4l-14.5,25.1h-29l-1-1.7-13.5-23.3,14.5-25.1h29l14.5,25Zm.1,51.4l-14.5,25.1h-29l-14.5-25.1,14.5-25.1h29l14.5,25.1Zm0,51.3l-14.5,25.1h-29l-14.5-25.1,14.5-25.1h29l14.5,25.1Zm-.1,51.3l-14.5,25.1h-29l-1-1.7-13.5-23.3,14.5-25.1h29l14.5,25Zm.1,51.3l-14.5,25.1h-29l-14.5-25.1,14.5-25.1h29l14.5,25.1Zm0,51.4l-14.5,25.1h-29l-14.5-25.1,14.5-25.1h29l14.5,25.1Zm-.1,51.3l-14.5,25.1h-29l-1-1.7-13.5-23.3,14.5-25.1h29l14.5,25Zm.1,51.3l-14.5,25.1h-29l-14.5-25.1,14.5-25.1h29l14.5,25.1Zm0,51.3l-14.5,25.1h-29l-14.5-25.1,14.5-25.1h29l14.5,25.1Zm-.1,51.4l-14.5,25.1h-29l-1.1-2-13.3-23.1,14.5-25.1h29l14.4,25.1Zm.1,51.3l-14.5,25.1h-29l-14.5-25.1,14.5-25.1h29l14.5,25.1Zm0,51.3l-14.5,25.1h-29l-14.5-25.1,14.5-25.1h29l14.5,25.1Zm-.1,51.3l-14.5,25.1h-29l-1-1.7-13.5-23.3,14.5-25.1h29l14.5,25Zm.1,51.4l-14.5,25.1h-29l-14.5-25.1,14.5-25.1h29l14.5,25.1Zm30,51.9l14.4,25-14.5,25.1h-29l-14.4-25,14.5-25.1h29Zm14.4,76.4l-14.5,25.1h-29l-14.5-25.1,14.6-25.1h29l14.4,25.1Zm-87.9,50.7l-14.5-25.1,14.5-25.1h29l14.5,25.1-14.5,25.1h-29Zm-89,0l-14.5-25.1,14.5-25.1h29l14.5,25.1-14.5,25.1h-29Zm-15.5,25.7h-28.9l-14.5-25.1,14.5-25.1h28.9l14.5,25.1-14.5,25.1Zm-73.5-25.7l-14.5-25.1,14.5-25.1h29l14.5,25.1-14.5,25.1h-29Zm-15.4,25.7h-29l-14.5-25.1,14.5-25.1h29l14.5,25.1-14.5,25.1Zm-162.5-25.7l-14.5-25.1,14.5-25.1h29l14.5,25.1-14.5,25.1h-29Zm-15.5,25.7h-28.9l-14.5-25.1,14.5-25.1h28.9l14.5,25.1-14.5,25.1Zm-73.4-25.7l-14.5-25.1,14.5-25.1h29l14.5,25.1-14.5,25.1h-29Zm-15.5,25.7h-29l-14.5-25.1,14.5-25.1h29l14.5,25.1-14.5,25.1Zm-73.5-25.7l-14.5-25.1,14.5-25.1h29l14.5,25.1-14.5,25.1h-29Zm-15.5,25.7h-29l-14.5-25.1,14.5-25.1h29l14.5,25.1-14.5,25.1Zm-73.5-25.7l-14.5-25.1,14.5-25.1h29l14.5,25.1-14.5,25.1h-29Zm-15.5,25.7h-29l-14.5-25.1,14.6-25.1h29l14.5,25.1-14.6,25.1Zm-73.4-25.7l-14.5-25.1,14.5-25.1h29l14.5,25.1-14.5,25.1h-29Zm-15.5,25.7h-29l-14.5-25.1,14.5-25.1h29l14.5,25.1-14.5,25.1Zm-73.5-25.7l-14.5-25.1,14.5-25.1h29l14.5,25.1-14.5,25.1h-29Zm-58.9-50.7l14.5-25.1h29l14.5,25.1-14.5,25.1h-29l-14.5-25.1Zm-.1-51.3l14.5-25.1h29l14.4,25-14.5,25.1h-29l-14.4-25Zm.1-51.4l14.5-25.1h29l14.5,25.1-14.5,25.1h-29l-14.5-25.1Zm0-51.3l14.5-25.1h29l14.5,25.1-14.5,25.1h-29l-14.5-25.1Zm-.1-51.3l14.5-25.1h29l14.4,25-14.5,25.1h-29l-14.4-25Zm.1-51.4l14.5-25.1h29l14.5,25.1-14.5,25.1h-29l-14.5-25.1Zm0-51.3l14.5-25.1h29l14.5,25.1-14.5,25.1h-29l-14.5-25.1Zm-.1-51.2l14.5-25.1h29l14.4,25-14.5,25.1h-29l-14.4-25Zm.1-51.4l14.5-25.1h29l14.5,25.1-14.5,25.1h-29l-14.5-25.1Zm0-51.3l14.5-25.1h29l14.5,25.1-14.5,25.1h-29l-14.5-25.1Zm-.1-51.3l14.5-25.1h29l14.4,25-14.5,25.1h-29l-14.4-25Zm.1-51.4l14.5-25.1h29l14.5,25.1-14.5,25.1h-29l-14.5-25.1Zm0-51.3l14.5-25.1h29l14.5,25.1-14.5,25.1h-29l-14.5-25.1Zm-.1-51.3l14.5-25.1h29l14.4,25-14.5,25.1h-29l-14.4-25Zm.1-51.4l14.5-25.1h29l14.5,25.1-14.5,25.1h-29l-14.5-25.1Zm0-51.3l14.5-25.1h29l14.5,25.1-14.5,25.1h-29l-14.5-25.1Zm-.1-51.3l14.5-25.1h29l14.4,25-14.5,25.1h-29l-14.4-25Zm.1-51.3l14.5-25.1h29l14.5,25.1-14.5,25.1h-29l-14.5-25.1Zm87.9-50.8l14.5,25.1-14.5,25.1h-29l-14.5-25.1,14.5-25.1h29Zm15.5-25.6h29l14.5,25.1-14.5,25.1h-29l-14.5-25.1,14.5-25.1Zm73.5,25.6l14.5,25.1-14.5,25.1h-29l-14.5-25.1,14.5-25.1h29Zm15.5-25.6h29l14.5,25.1-14.5,25.1h-29l-14.5-25.1,14.5-25.1Zm73.4,25.6l14.5,25.1-14.5,25.1h-29l-14.5-25.1,14.5-25.1h29Zm15.5-25.6h29l14.5,25.1-14.5,25.1h-29l-14.5-25.1,14.5-25.1Zm73.5,25.6l14.5,25.1-14.5,25.1h-29l-14.5-25.1,14.5-25.1h29Zm15.5-25.6h29l14.5,25.1-14.5,25.1h-29l-14.5-25.1,14.5-25.1Zm73.5,25.6l14.5,25.1-14.5,25.1h-29l-14.5-25.1,14.5-25.1h29Zm15.5-25.6h28.9l14.5,25.1-14.5,25.1h-28.9l-14.5-25.1,14.5-25.1Zm73.4,25.6l14.5,25.1-14.5,25.1h-29l-14.5-25.1,14.5-25.1h29Zm15.5-25.6h29l14.5,25.1-14.5,25.1h-29l-14.5-25.1,14.5-25.1Zm89,0h29l14.5,25.1-14.5,25.1h-29l-14.5-25.1,14.5-25.1Zm73.5,25.6l14.5,25.1-14.5,25.1h-29l-14.5-25.1,14.5-25.1h29Zm15.5-25.6h28.9l14.5,25.1-14.5,25.1h-28.9l-14.5-25.1,14.5-25.1Zm73.4,25.6l14.5,25.1-14.5,25.1h-29l-14.5-25.1,14.5-25.1h29Zm15.5-25.6h29l14.5,25.1-14.5,25.1h-29l-14.5-25.1,14.5-25.1Zm132.4,76.4l-14.5,25.1h-29l-14.5-25.1,14.5-25.1h29l14.5,25.1Zm.1,51.2l-14.5,25.1h-29l-14.4-25,14.4-25.1h29l14.5,25Zm-.1,51.4l-14.5,25.1h-29l-14.5-25.1,14.6-25.1h29l14.4,25.1Zm0,51.3l-14.5,25.1h-29l-14.5-25.1,14.6-25h29l14.4,25Zm.1,51.3l-14.5,25.1h-29l-14.4-25,14.4-25.1h29l14.5,25Zm-.1,51.4l-14.5,25.1h-29l-14.5-25.1,14.6-25.1h29l14.4,25.1Zm0,51.3l-14.5,25.1h-29l-14.5-25.1,14.6-25.1h29l14.4,25.1Zm.1,51.3l-14.5,25.1h-29l-14.4-25,14.4-25.1h29l14.5,25Zm-.1,51.4l-14.5,25.1h-29l-14.5-25.1,14.6-25.1h29l14.4,25.1Zm0,51.3l-14.5,25.1h-29l-14.5-25.1,14.6-25.1h29l14.4,25.1Zm.1,51.2l-14.5,25.1h-29l-14.4-25,14.4-25.1h29l14.5,25Zm-.1,51.4l-14.5,25.1h-29l-14.5-25.1,14.6-25.1h29l14.4,25.1Zm0,51.3l-14.5,25.1h-29l-14.5-25.1,14.6-25h29l14.4,25Zm.1,51.3l-14.5,25.1h-29l-14.4-25,14.4-25.1h29l14.5,25Zm-.1,51.4l-14.5,25.1h-29l-14.5-25.1,14.6-25.1h29l14.4,25.1Zm0,51.3l-14.5,25.1h-29l-14.5-25.1,14.6-25.1h29l14.4,25.1Zm44.5,77l-14.5,25.1h-29l-14.5-25.1,14.5-25.1h29l14.5,25.1Zm-14.4,76.4h-29l-14.5-25.1,14.5-25.1h29l14.5,25.1-14.5,25.1Zm-43.5,26.2l14.5-25.1h28.9l14.5,25.1-14.5,25.1h-28.9l-14.5-25.1Zm-88.9,0l14.5-25.1h29l14.4,25.1-14.5,25.1h-29l-14.4-25.1Zm-89,0l14.5-25.1h29l14.4,25.1-14.5,25.1h-29l-14.4-25.1Zm-89,0l14.5-25.1h28.9l14.5,25.1-14.5,25.1h-28.9l-14.5-25.1Zm-88.9,0l14.5-25.1h29l1,1.7,13.5,23.3-14.5,25.1h-29l-14.5-25Zm-89,0l14.5-25.1h29l14.5,25.1-14.5,25.1h-29l-14.5-25.1Zm-89,0l14.5-25.1h28.9l14.5,25.1-14.5,25.1h-28.9l-14.5-25.1Zm-88.9,0l14.5-25.1h29l14.5,25.1-14.5,25.1h-29l-14.5-25.1Zm-89,0l14.5-25.1h29l14.5,25.1-14.5,25.1h-29l-14.5-25.1Zm-88.9,0l14.5-25.1h29l14.5,25.1-14.5,25.1h-29l-14.5-25.1Zm-89,0l14.5-25.1h29l14.5,25.1-14.5,25.1h-29l-14.5-25.1Zm-89,0l14.5-25.1h29l14.5,25.1-14.5,25.1h-29l-14.5-25.1Zm14.4-76.3h29l14.5,25.1-14.5,25.1h-29l-14.5-25.1,14.5-25.1Zm-14.4-26.3l14.5-25.1h29l14.5,25.1-14.5,25.1h-29l-14.5-25.1Zm0-51.3l14.5-25.1h29l14.5,25.1-14.5,25.1h-29l-14.5-25.1Zm14.4-76.4h29l14.5,25.1-14.5,25.1h-29l-14.5-25.1,14.5-25.1Zm-14.4-26.3l14.5-25.1h29l14.5,25.1-14.5,25.1h-29l-14.5-25.1Zm0-51.3l14.5-25.1h29l14.5,25.1-14.5,25.1h-29l-14.5-25.1Zm14.4-76.4h29l14.5,25.1-14.5,25.1h-29l-14.5-25.1,14.5-25.1Zm-14.4-26.2l14.5-25.1h29l14.5,25.1-14.5,25.1h-29l-14.5-25.1Zm0-51.4l14.5-25.1h29l14.5,25.1-14.5,25.1h-29l-14.5-25.1Zm14.4-76.4h29l14.5,25.1-14.5,25.1h-29l-14.5-25.1,14.5-25.1Zm-14.4-26.2l14.5-25.1h29l14.5,25.1-14.5,25.1h-29l-14.5-25.1Zm0-51.3l14.5-25.1h29l14.5,25.1-14.5,25.1h-29l-14.5-25.1Zm14.4-76.4h29l14.5,25.1-14.5,25.1h-29l-14.5-25.1,14.5-25.1Zm-14.4-26.3l14.5-25.1h29l14.5,25.1-14.5,25.1h-29l-14.5-25.1Zm0-51.3l14.5-25.1h29l14.5,25.1-14.5,25.1h-29l-14.5-25.1Zm14.4-76.4h29l14.5,25.1-14.5,25.1h-29l-14.5-25.1,14.5-25.1Zm-14.4-26.3l14.5-25.1h29l14.5,25.1-14.5,25.1h-29l-14.5-25.1Zm0-51.3l14.5-25.1h29l14.5,25.1-14.5,25.1h-29l-14.5-25.1Zm14.4-76.4h29l14.5,25.1-14.5,25.1h-29l-14.5-25.1,14.5-25.1Zm43.5-26.2l-14.5,25.1h-29l-14.5-25.1,14.5-25.1h29l14.5,25.1Zm88.9,0l-14.5,25.1h-29l-14.5-25.1,14.5-25.1h29l14.5,25.1Zm89,0l-14.5,25.1h-29l-14.5-25.1,14.5-25.1h29l14.5,25.1Zm89,0l-14.5,25.1h-29l-14.5-25.1,14.5-25.1h29l14.5,25.1Zm88.9,0l-14.5,25.1h-29l-14.5-25.1,14.5-25.1h29l14.5,25.1Zm89,0l-14.5,25.1h-29l-14.5-25.1,14.5-25.1h29l14.5,25.1Zm89,0l-14.5,25.1h-28.9l-14.5-25.1,14.5-25.1h28.9l14.5,25.1Zm88.9,0l-14.5,25.1h-29l-1-1.7-13.5-23.3,14.5-25.1h29l14.5,25Zm89,0l-14.5,25.1h-29l-14.5-25.1,14.5-25.1h29l14.5,25.1Zm88.9,0l-14.5,25.1h-29l-14.5-25.1,14.5-25.1h29l14.5,25.1Zm89,0l-14.5,25.1h-29l-1-1.7-13.5-23.3,14.5-25.1h29l14.5,25Zm89,0l-14.5,25.1h-29l-14.5-25.1,14.5-25.1h29l14.5,25.1Zm-14.4,76.4h-29l-14.5-25.1,14.5-25.1h29l14.5,25.1-14.5,25.1Zm14.4,26.2l-14.5,25.1h-28.9l-14.5-25.1,14.5-25.1h28.9l14.5,25.1Zm0,51.3l-14.5,25.1h-29l-14.5-25.1,14.5-25.1h29l14.5,25.1Zm-14.4,76.4h-29l-14.5-25.1,14.5-25.1h29l14.5,25.1-14.5,25.1Zm14.4,26.3l-14.5,25.1h-28.9l-14.5-25.1,14.5-25.1h28.9l14.5,25.1Zm0,51.3l-14.5,25.1h-29l-14.5-25.1,14.5-25.1h29l14.5,25.1Zm-14.4,76.4h-29l-14.5-25.1,14.5-25.1h29l14.5,25.1-14.5,25.1Zm14.4,26.3l-14.5,25.1h-28.9l-14.5-25.1,14.5-25.1h28.9l14.5,25.1Zm0,51.3l-14.5,25.1h-29l-14.5-25.1,14.5-25.1h29l14.5,25.1Zm-14.4,76.4h-29l-14.5-25.1,14.5-25.1h29l14.5,25.1-14.5,25.1Zm14.4,26.2l-14.5,25.1h-28.9l-14.5-25.1,14.5-25.1h28.9l14.5,25.1Zm0,51.4l-14.5,25.1h-29l-14.5-25.1,14.5-25.1h29l14.5,25.1Zm-14.4,76.4h-29l-14.5-25.1,14.5-25.1h29l14.5,25.1-14.5,25.1Zm14.4,26.2l-14.5,25.1h-28.9l-14.5-25.1,14.5-25.1h28.9l14.5,25.1Zm0,51.3l-14.5,25.1h-29l-14.5-25.1,14.5-25.1h29l14.5,25.1Zm-14.4,76.4h-29l-14.5-25.1,14.5-25.1h29l14.5,25.1-14.5,25.1Z"/>
      <path id="trama-2" class="cls-1" d="m1920,1979.6l-.2-.3h0l-14.6-25.4,14.6-25.4-.5-.3.5-.3-14.6-25.4,14.6-25.4h-.1l.2-.3-14.8-25.6,14.8-25.7-.2-.3h0l-14.6-25.4,14.6-25.4-.5-.3.5-.3-14.6-25.4,14.6-25.4h-.1l.2-.3-14.8-25.6,14.8-25.7-.2-.3h0l-14.6-25.4,14.6-25.4-.5-.3.5-.3-14.6-25.4,14.6-25.4h-.1l.2-.3-14.8-25.6,14.8-25.7-.2-.3h0l-14.6-25.4,14.6-25.4-.5-.3.5-.3-14.6-25.4,14.6-25.4h-.1l.2-.3-14.8-25.6,14.8-25.7-.2-.3h0l-14.6-25.4,14.6-25.4-.5-.3.5-.3-14.6-25.4,14.6-25.4h-.1l.2-.3-14.8-25.6,14.8-25.7-.2-.3h0l-14.6-25.4,14.6-25.4-.5-.3.5-.3-14.6-25.4,14.6-25.4h-.1l.2-.3-15.2-26.3h-30.3l-14.8,25.7h-29l-14.8-25.7h-30.3l-14.8,25.7h-29l-14.8-25.7h-30.3l-14.8,25.7h-29l-14.8-25.7h-30.3l-14.8,25.7h-29l-14.8-25.7h-30.3l-14.8,25.7h-29l-14.8-25.7h-30.3l-14.8,25.7h-29l-14.8-25.7h-30.3l-14.8,25.7h-29l-14.8-25.7h-30.3l-14.8,25.7h-29l-14.8-25.7h-30.3l-14.8,25.7h-29l-14.8-25.7h-30.3l-14.8,25.7h-29l-14.8-25.7h-30.3l-14.8,25.7h-29l-14.8-25.7h-30.3l-15.2,26.3.2.3h0l14.6,25.4-14.6,25.4.5.3-.5.3,14.6,25.4-14.6,25.4h0l-.2.3,14.8,25.6-14.8,25.7.2.3h0l14.6,25.4-14.6,25.4.5.3-.5.3,14.6,25.4-14.6,25.4h0l-.2.3,14.8,25.6-14.8,25.7.2.3h0l14.6,25.4-14.6,25.4.5.3-.5.3,14.6,25.4-14.6,25.4h0l-.2.3,14.8,25.6-14.8,25.7.2.3h0l14.6,25.4-14.6,25.4.5.3-.5.3,14.6,25.4-14.6,25.4h0l-.2.3,14.8,25.6-14.8,25.7.2.3h0l14.6,25.4-14.6,25.4.5.3-.5.3,14.6,25.4-14.6,25.4h0l-.2.3,14.8,25.6-14.8,25.7.2.3h0l14.6,25.4-14.6,25.4.5.3-.5.3,14.6,25.4-14.6,25.4h0l-.2.3,14.8,25.6-14.8,25.7.2.3h0l14.6,25.4-14.6,25.4.5.3-.5.3,14.6,25.4-14.6,25.4h0l-.2.3,15.1,26.1h30.3l14.8-25.7h29l14.9,25.7h30.3l14.8-25.7h29l14.8,25.7h30.3l14.8-25.7h29l14.9,25.7h30.3l14.8-25.7h29l14.9,25.7h30.3l14.8-25.7h29l14.8,25.7h30.3l14.8-25.7h29l14.9,25.7h30.3l14.8-25.7h29l14.9,25.7h30.3l14.8-25.7h29l14.8,25.7h30.3l14.8-25.7h29l14.9,25.7h30.3l14.8-25.7h29l14.9,25.7h30.3l14.8-25.7h29l14.8,25.7h30.3l15.2-26.3-.2-.3h0l-14.6-25.4,14.6-25.4-.5-.3.5-.3-14.6-25.4,14.6-25.4h-.1l.2-.3-14.8-25.6,14.9-25.5Zm-1.4,0l-14.5,25.1h-28.9l-14.5-25.1,14.5-25.1h28.9l14.5,25.1Zm-44.5-846.9l-14.5,25.1h-29l-14.5-25.1,14.5-25.1h29l14.5,25.1Zm-58.9.6l14.5,25.1-14.5,25.1h-29l-14.5-25.1,14.5-25.1h29Zm-266.9,0l14.5,25.1-14.5,25.1h-29l-14.5-25.1,14.5-25.1h29Zm-607.3-25.6h29l14.5,25.1-14.5,25.1h-29l-14.5-25.1,14.5-25.1Zm-14.4,1000.2l14.4-25.1h29l14.5,25.1-14.5,25.1h-29l-14.4-25.1Zm547.2,23.3l-13.5-23.3,14.5-25.1h29l14.5,25.1-14.5,25.1h-29l-1-1.8Zm45.5-23.9l-14.5-25.1,14.5-25.1h29l14.5,25.1-14.5,25.1h-29Zm221.4,23.9l-13.5-23.3,14.5-25.1h29l14.5,25.1-14.5,25.1h-29l-1-1.8Zm118.9,1.8h-29l-14.5-25.1,14.6-25.1h29l14.5,25.1-14.6,25.1Zm-29.9-923.3l-14.5,25.1h-29l-14.5-25.1,14.5-25.1h29l14.5,25.1Zm-44.5-25.6l-14.5,25.1h-29l-1.1-2-13.3-23.1,14.5-25.1h29l14.4,25.1Zm-89,0l-14.5,25.1h-28.9l-14.5-25.1,14.5-25.1h28.9l14.5,25.1Zm-89,0l-14.5,25.1h-29l-14.5-25.1,14.5-25.1h29l14.5,25.1Zm-58.9.5l1.1,2,13.3,23.1-14.5,25.1h-29l-14.5-25.1,14.5-25.1h29.1Zm-30-.5l-14.5,25.1h-29l-1.1-2-13.3-23.1,14.5-25.1h29l14.4,25.1Zm-89,0l-14.5,25.1h-28.9l-14.5-25.1,14.5-25.1h28.9l14.5,25.1Zm-89,0l-14.5,25.1h-29l-14.5-25.1,14.5-25.1h29l14.5,25.1Zm-88.9,0l-14.5,25.1h-29l-14.5-25.1,14.5-25.1h29l14.5,25.1Zm-89,0l-14.5,25.1h-29l-14.5-25.1,14.5-25.1h29l14.5,25.1Zm-89,0l-14.5,25.1h-29l-14.5-25.1,14.5-25.1h29l14.5,25.1Zm-58.9.5l14.5,25.1-14.5,25.1h-29l-14.5-25.1,14.5-25.1h29Zm-43.5,846.3l14.5-25.1h29l14.5,25.1-14.5,25.1h-29l-14.5-25.1Zm44.5,25.7l14.5-25.1h29l14.5,25.1-14.5,25.1h-29l-14.5-25.1Zm89,0l14.5-25.1h29l14.5,25.1-14.5,25.1h-29l-14.5-25.1Zm89,0l14.5-25.1h29l14.5,25.1-14.5,25.1h-29l-14.5-25.1Zm88.9,0l14.5-25.1h29l14.5,25.1-14.5,25.1h-29l-14.5-25.1Zm89,0l14.5-25.1h28.9l14.5,25.1-14.5,25.1h-28.9l-14.5-25.1Zm89,0l14.5-25.1h29l14.5,25.1-14.5,25.1h-29l-14.5-25.1Zm58.9-.6l-1.1-1.9-13.4-23.2,14.5-25.1h29l14.5,25.1-14.5,25.1h-29Zm30,.6l14.5-25.1h29l14.5,25.1-14.5,25.1h-29l-14.5-25.1Zm89,0l14.5-25.1h28.9l14.5,25.1-14.5,25.1h-28.9l-14.5-25.1Zm89,0l14.5-25.1h29l14.5,25.1-14.5,25.1h-29l-14.5-25.1Zm58.9-.6l-1.1-1.9-13.4-23.2,14.5-25.1h29l14.5,25.1-14.5,25.1h-29Zm43.5-76.4l-14.5,25.1h-29l-14.5-25.1,14.5-25.1h29l14.5,25.1Zm-59-769.3l14.4,25-14.5,25.1h-29l-14.4-25,14.5-25.1h29Zm-206.9,0h29l14.4,25-14.5,25.1h-29l-14.4-25,14.5-25.1Zm-59.9,0l14.4,25-14.5,25.1h-29l-14.4-25,14.5-25.1h29Zm-.1,820h-29l-14.4-25,14.5-25.1h29l14.4,25-14.5,25.1Zm266.9,0h-29l-14.4-25,14.5-25.1h29l14.4,25-14.5,25.1Zm-30-717.9l-14.5,25.1h-29l-14.5-25.1,14.5-25.1h29l14.5,25.1Zm-192.4-25.1l14.5,25.1-14.5,25.1h-29l-14.5-25.1,14.5-25.1h29Zm-444.8,0l14.5,25.1-14.5,25.1h-29l-14.5-25.1,14.5-25.1h29Zm-43.5,641l14.5-25.1h29l14.5,25.1-14.5,25.1h-29l-14.5-25.1Zm414.8,50.7l-1-1.7-13.5-23.3,14.5-25.1h29l14.5,25.1-14.5,25.1h-29v-.1Zm44.5-25.7l-14.5-25.1,14.5-25.1h29l14.5,25.1-14.5,25.1h-29Zm133.5,25.7l-14.5-25.1,14.5-25.1h28.9l14.5,25.1-14.5,25.1h-28.9Zm43.4-641l-14.5,25.1h-28.9l-14.5-25.1,14.5-25.1h28.9l14.5,25.1Zm-89,0l-14.5,25.1h-29l-14.5-25.1,14.5-25.1h29l14.5,25.1Zm-58.9.6l1,1.7,13.5,23.3-14.5,25.1h-29l-14.5-25.1,14.5-25.1h29v.1Zm-30-.6l-14.5,25.1h-29l-1-1.7-13.5-23.3,14.5-25.1h29l14.5,25Zm-89,0l-14.5,25.1h-28.9l-14.5-25.1,14.5-25.1h28.9l14.5,25.1Zm-89,0l-14.5,25.1h-29l-14.5-25.1,14.5-25.1h29l14.5,25.1Zm-88.9,0l-14.5,25.1h-29l-14.5-25.1,14.5-25.1h29l14.5,25.1Zm-89,0l-14.5,25.1h-29l-14.5-25.1,14.5-25.1h29l14.5,25.1Zm-57.9,564.6l14.5-25.1h29l14.5,25.1-14.5,25.1h-29l-14.5-25.1Zm89,0l14.5-25.1h29l14.5,25.1-14.5,25.1h-29l-14.5-25.1Zm88.9,0l14.5-25.1h29l14.5,25.1-14.5,25.1h-29l-14.5-25.1Zm89,0l14.5-25.1h28.9l14.5,25.1-14.5,25.1h-28.9l-14.5-25.1Zm89,0l14.5-25.1h29l14.5,25.1-14.5,25.1h-29l-14.5-25.1Zm58.9-.6l-1-1.7-13.5-23.3,14.5-25.1h29l14.5,25.1-14.5,25.1h-29v-.1Zm30,.6l14.5-25.1h29l14.5,25.1-14.5,25.1h-29l-14.5-25.1Zm59-.6l-14.5-25.1,14.5-25.1h29l14.5,25.1-14.5,25.1h-29Zm43.4-487l-14.5,25.1h-29l-14.5-25.1,14.5-25.1h29l14.5,25.1Zm-87.9-50.7h29l14.4,25-14.5,25.1h-29l-14.4-25,14.5-25.1Zm-59.9,0l14.4,25-14.5,25.1h-29l-14.4-25,14.5-25.1h29Zm-340.5,25.6h29l14.5,25.1-14.5,25.1h-29l-14.5-25.1,14.5-25.1Zm-14.4,435.7l14.5-25.1h29l14.5,25.1-14.5,25.1h-29l-14.5-25.1Zm354.8,50.7h-29l-14.4-25,14.5-25.1h29l14.4,25-14.5,25.1Zm103.4-435.6l-14.5,25.1h-29l-14.5-25.1,14.5-25.1h29l14.5,25.1Zm-58.9.6l14.5,25.1-14.5,25.1h-29l-14.5-25.1,14.5-25.1h29Zm-311.4-25.7l14.5,25.1-14.5,25.1h-29l-14.5-25.1,14.5-25.1h29Zm-43.4,384.3l14.5-25.1h29l14.5,25.1-14.5,25.1h-29l-14.5-25.1Zm281.3,25.1l-1-1.7-13.5-23.3,14.5-25.1h29l14.5,25.1-14.5,25.1h-29v-.1Zm44.5-25.6l-14.5-25.1,14.5-25.1h29l14.5,25.1-14.5,25.1h-29Zm43.5-281.7l-14.5,25.1h-29l-14.5-25.1,14.5-25.1h29l1,1.7,13.5,23.4Zm-44.5-25.7l-14.5,25.1h-29l-1-1.7-13.5-23.3,14.5-25.1h29l14.5,25Zm-89,0l-14.5,25.1h-28.9l-14.5-25.1,14.5-25.1h28.9l14.5,25.1Zm-89,0l-14.5,25.1h-29l-14.5-25.1,14.5-25.1h29l14.5,25.1Zm-58.9.6l14.5,25.1-14.5,25.1h-29l-14.5-25.1,14.5-25.1h29Zm-43.5,230.4l14.5-25.1h29l14.5,25.1-14.5,25.1h-29l-14.5-25.1Zm44.5,25.6l14.5-25.1h29l14.5,25.1-14.5,25.1h-29l-14.5-25.1Zm89,0l14.5-25.1h28.9l14.5,25.1-14.5,25.1h-28.9l-14.5-25.1Zm89,0l14.5-25.1h29l14.5,25.1-14.5,25.1h-29l-14.5-25.1Zm43.5-230.3l14.4,25-14.5,25.1h-29l-14.4-25,14.5-25.1h29Zm-44.6,178.4h-29l-14.5-25.1,14.5-25.1h29l14.5,25.1-14.5,25.1Zm14.5-76.4l-14.5,25.1h-29l-14.5-25.1,14.5-25.1h29l14.5,25.1Zm-103.4-25.1l14.5,25.1-14.5,25.1h-29l-14.5-25.1,14.5-25.1h29Zm15.5,75.8l-14.5-25.1,14.5-25.1h28.9l14.5,25.1-14.5,25.1h-28.9,0Zm28.9-101.4l14.5,25.1-14.5,25.1h-28.9l-14.5-25.1,14.5-25.1h28.9Zm14.5,127.6l-14.5,25.1h-29l-14.4-25,14.5-25.1h29l14.4,25Zm-58.9-.5h-28.9l-14.5-25.1,14.5-25.1h28.9l14.5,25.1-14.5,25.1Zm-30,.5l-14.5,25.1h-29l-14.4-25,14.5-25.1h29l14.4,25Zm-58-51.2l14.5-25.1h29l14.5,25.1-14.5,25.1h-29l-14.5-25.1Zm0-51.3l14.5-25.1h29l14.5,25.1-14.5,25.1h-29l-14.5-25.1Zm0-51.3l14.5-25.1h29l14.4,25-14.5,25.1h-29l-14.4-25Zm59,.5h29l14.5,25.1-14.5,25.1h-29l-14.5-25.1,14.5-25.1Zm30-.5l14.5-25.1h29l14.4,25-14.5,25.1h-29l-14.4-25Zm58.9.5h28.9l14.5,25.1-14.5,25.1h-28.9l-14.5-25.1,14.5-25.1Zm88,50.8l-14.5,25.1h-29l-14.5-25.1,14.5-25.1h29l14.5,25.1Zm0,51.3l-14.5,25.1h-29l-1.1-2-13.3-23.1,14.5-25.1h29l14.4,25.1Zm0,51.2l-14.5,25.1h-29l-14.4-25,14.5-25.1h29l14.4,25Zm-88,50.8l-14.5-25.1,14.5-25.1h28.9l14.5,25.1-14.5,25.1h-28.9Zm-88.9,0l-14.5-25.1,14.5-25.1h29l14.5,25.1-14.5,25.1h-29Zm-103.4-76.4l14.5-25.1h29l14.5,25.1-14.5,25.1h-29l-14.5-25.1Zm-.1-51.3l14.5-25.1h29l14.5,25.1-14.5,25.1h-29l-14.5-25.1Zm0-51.3l14.5-25.1h29l14.5,25.1-14.5,25.1h-29l-14.5-25.1Zm132.5-76.4l14.5,25.1-14.5,25.1h-28.9l-14.5-25.1,14.5-25.1h28.9Zm88.9,0l14.5,25.1-14.5,25.1h-29l-14.5-25.1,14.5-25.1h29Zm103.4,76.4l-14.5,25.1h-29l-1-1.7-13.5-23.3,14.5-25.1h29l14.5,25Zm.1,51.3l-14.5,25.1h-29l-14.5-25.1,14.5-25.1h29l14.5,25.1Zm0,51.3l-14.5,25.1h-29l-14.5-25.1,14.5-25.1h29l1.1,2,13.4,23.1Zm-.1,51.4l-14.5,25.1h-29l-1.1-2-13.3-23.1,14.5-25.1h29l14.4,25.1Zm-132.4,76.4l-14.5-25.1,14.5-25.1h29l14.5,25.1-14.5,25.1h-29Zm-44.4,25.6l-14.5-25.1,14.5-25.1h28.9l14.5,25.1-14.5,25.1h-28.9Zm-44.5-25.6l-14.5-25.1,14.5-25.1h29l14.5,25.1-14.5,25.1h-29Zm-44.5,25.6l-14.5-25.1,14.5-25.1h29l14.5,25.1-14.5,25.1h-29Zm-44.5-25.6l-14.5-25.1,14.5-25.1h29l14.5,25.1-14.5,25.1h-29Zm-58.9-50.8l14.5-25.1h29l14.5,25.1-14.5,25.1h-29l-14.5-25.1Zm-.1-51.2l14.5-25.1h29l14.4,25-14.5,25.1h-29l-14.4-25Zm.1-51.4l14.5-25.1h29l14.5,25.1-14.5,25.1h-29l-14.5-25.1Zm0-51.3l14.5-25.1h29l14.5,25.1-14.5,25.1h-29l-14.5-25.1Zm-.1-51.3l14.5-25.1h29l14.4,25-14.5,25.1h-29l-14.4-25Zm.1-51.4l14.5-25.1h29l14.5,25.1-14.5,25.1h-29l-14.5-25.1Zm87.9-50.7l14.5,25.1-14.5,25.1h-29l-14.5-25.1,14.5-25.1h29Zm44.5-25.7l14.5,25.1-14.5,25.1h-29l-14.5-25.1,14.5-25.1h29Zm44.5,25.7l14.5,25.1-14.5,25.1h-29l-14.5-25.1,14.5-25.1h29Zm44.4-25.7l14.5,25.1-14.5,25.1h-28.9l-14.5-25.1,14.5-25.1h28.9Zm44.5,25.7l14.5,25.1-14.5,25.1h-29l-14.5-25.1,14.5-25.1h29Zm44.5-25.7l14.5,25.1-14.5,25.1h-29l-14.5-25.1,14.5-25.1h29Zm103.4,76.4l-14.5,25.1h-29l-14.5-25.1,14.5-25.1h29l14.5,25.1Zm.1,51.3l-14.5,25.1h-29l-14.4-25,14.5-25.1h29l14.4,25Zm-.1,51.4l-14.5,25.1h-29l-14.5-25.1,14.5-25.1h29l14.5,25.1Zm0,51.3l-14.5,25.1h-29l-14.5-25.1,14.5-25.1h29l14.5,25.1Zm.1,51.2l-14.5,25.1h-29l-14.4-25,14.5-25.1h29l14.4,25Zm-.1,51.4l-14.5,25.1h-29l-14.5-25.1,14.5-25.1h29l14.5,25.1Zm0,51.3l-14.5,25.1h-29l-14.5-25.1,14.5-25.1h29l14.5,25.1Zm.1,51.3l-14.5,25.1h-29l-14.4-25,14.5-25.1h29l14.4,25Zm-59-.5h-29l-14.5-25.1,14.5-25.1h29l1,1.7,13.5,23.3-14.5,25.2Zm-89,0h-29l-14.5-25.1,14.5-25.1h29l14.5,25.1-14.5,25.1Zm-30,.5l-14.5,25.1h-29l-14.4-25,14.5-25.1h29l14.4,25Zm-58.9-.5h-28.9l-14.5-25.1,14.5-25.1h28.9l14.5,25.1-14.5,25.1Zm-30,.5l-14.5,25.1h-29l-14.4-25,14.5-25.1h29l14.4,25Zm-59-.5h-29l-14.5-25.1,14.5-25.1h29l14.5,25.1-14.5,25.1Zm-30,.5l-14.5,25.1h-29l-14.4-25,14.5-25.1h29l14.4,25Zm-102.5-76.9l14.5-25.1h29l14.5,25.1-14.5,25.1h-29l-14.5-25.1Zm.1-51.3l14.5-25.1h29l14.5,25.1-14.5,25.1h-29l-14.5-25.1Zm0-51.4l14.5-25.1h29l14.5,25.1-14.5,25.1h-29l-14.5-25.1Zm-.1-51.3l14.5-25.1h29l14.5,25.1-14.5,25.1h-29l-14.5-25.1Zm.1-51.3l14.5-25.1h29l14.5,25.1-14.5,25.1h-29l-14.5-25.1Zm0-51.3l14.5-25.1h29l14.5,25.1-14.5,25.1h-29l-14.5-25.1Zm-.1-51.4l14.5-25.1h29l14.5,25.1-14.5,25.1h-29l-14.5-25.1Zm44.5-76.9l14.5-25.1h29l14.4,25-14.5,25.1h-29l-14.4-25Zm59,.5h29l14.5,25.1-14.5,25.1h-29l-14.5-25.1,14.5-25.1Zm30-.5l14.5-25.1h29l14.4,25-14.5,25.1h-29l-14.4-25Zm59,.5h29l14.5,25.1-14.5,25.1h-29l-14.5-25.1,14.5-25.1Zm30-.5l14.5-25.1h29l14.4,25-14.5,25.1h-29l-14.4-25Zm58.9.5h28.9l14.5,25.1-14.5,25.1h-28.9l-14.5-25.1,14.5-25.1Zm89,0h29l14.5,25.1-14.5,25.1h-29l-1-1.7-13.5-23.3,14.5-25.2Zm132.5,76.4l-14.5,25.1h-29l-14.5-25.1,14.5-25.1h29l14.5,25.1Zm-.1,51.4l-14.5,25.1h-28.9l-14.5-25.1,14.5-25.1h28.9l14.5,25.1Zm0,51.3l-14.5,25.1h-29l-14.5-25.1,14.5-25.1h29l14.5,25.1Zm.1,51.3l-14.5,25.1h-29l-14.5-25.1,14.5-25.1h29l14.5,25.1Zm-.1,51.3l-14.5,25.1h-28.9l-14.5-25.1,14.5-25.1h28.9l14.5,25.1Zm0,51.4l-14.5,25.1h-29l-14.5-25.1,14.5-25.1h29l14.5,25.1Zm.1,51.3l-14.5,25.1h-29l-14.5-25.1,14.5-25.1h29l14.5,25.1Zm-.1,51.3l-14.5,25.1h-28.9l-14.5-25.1,14.5-25.1h28.9l14.5,25.1Zm-221.4,76.4l-14.5-25.1,14.5-25.1h28.9l14.5,25.1-14.5,25.1h-28.9Zm-88.9,0l-14.5-25.1,14.5-25.1h29l14.5,25.1-14.5,25.1h-29Zm-89,0l-14.5-25.1,14.5-25.1h29l14.5,25.1-14.5,25.1h-29Zm-89,0l-14.5-25.1,14.5-25.1h29l14.5,25.1-14.5,25.1h-29Zm-58.9-50.7l14.5-25.1h29l14.4,25-14.5,25.1h-29l-14.4-25Zm0-51.4l14.5-25.1h29l14.5,25.1-14.5,25.1h-29l-14.5-25.1Zm0-51.3l14.5-25.1h29l14.5,25.1-14.5,25.1h-29l-14.5-25.1Zm0-51.2l14.5-25.1h29l14.4,25-14.5,25.1h-29l-14.4-25Zm0-51.4l14.5-25.1h29l14.5,25.1-14.5,25.1h-29l-14.5-25.1Zm0-51.3l14.5-25.1h29l14.5,25.1-14.5,25.1h-29l-14.5-25.1Zm0-51.3l14.5-25.1h29l14.4,25-14.5,25.1h-29l-14.4-25Zm0-51.4l14.5-25.1h29l14.5,25.1-14.5,25.1h-29l-14.5-25.1Zm0-51.3l14.5-25.1h29l14.5,25.1-14.5,25.1h-29l-14.5-25.1Zm0-51.3l14.5-25.1h29l14.4,25-14.5,25.1h-29l-14.4-25Zm87.9-50.8l14.5,25.1-14.5,25.1h-29l-14.5-25.1,14.5-25.1h29Zm89,0l14.5,25.1-14.5,25.1h-29l-14.5-25.1,14.5-25.1h29Zm89,0l14.5,25.1-14.5,25.1h-28.9l-14.5-25.1,14.5-25.1h28.9Zm88.9,0l14.5,25.1-14.5,25.1h-29l-14.5-25.1,14.5-25.1h29Zm178,0l14.5,25.1-14.5,25.1h-28.9l-14.5-25.1,14.5-25.1h28.9Zm58.9,50.7l-14.5,25.1h-29l-14.4-25,14.5-25.1h29l14.4,25Zm0,51.4l-14.5,25.1h-28.9l-14.5-25.1,14.5-25.1h28.9l14.5,25.1Zm0,51.3l-14.5,25.1h-28.9l-14.5-25.1,14.5-25.1h28.9l14.5,25.1Zm0,51.3l-14.5,25.1h-29l-14.4-25,14.5-25.1h29l14.4,25Zm0,51.4l-14.5,25.1h-28.9l-14.5-25.1,14.5-25.1h28.9l14.5,25.1Zm0,51.3l-14.5,25.1h-28.9l-14.5-25.1,14.5-25.1h28.9l14.5,25.1Zm0,51.2l-14.5,25.1h-29l-14.4-25,14.5-25.1h29l14.4,25Zm0,51.4l-14.5,25.1h-28.9l-14.5-25.1,14.5-25.1h28.9l14.5,25.1Zm0,51.3l-14.5,25.1h-28.9l-14.5-25.1,14.5-25.1h28.9l14.5,25.1Zm0,51.3l-14.5,25.1h-29l-14.4-25,14.5-25.1h29l14.4,25Zm0,51.4l-14.5,25.1h-28.9l-14.5-25.1,14.5-25.1h28.9l14.5,25.1Zm-88,50.7l-14.5-25.1,14.5-25.1h29l14.5,25.1-14.5,25.1h-29Zm-44.4,25.7l-14.5-25.1,14.5-25.1h29l14.5,25.1-14.5,25.1h-29Zm-133.5-25.7l-14.5-25.1,14.5-25.1h29l14.5,25.1-14.5,25.1h-29Zm-44.4,25.7l-14.5-25.1,14.5-25.1h28.9l14.5,25.1-14.5,25.1h-28.9Zm-44.5-25.7l-14.5-25.1,14.5-25.1h29l14.5,25.1-14.5,25.1h-29Zm-44.5,25.7l-14.5-25.1,14.5-25.1h29l14.5,25.1-14.5,25.1h-29Zm-44.5-25.7l-14.5-25.1,14.5-25.1h29l14.5,25.1-14.5,25.1h-29Zm-44.5,25.7l-14.5-25.1,14.5-25.1h29l14.5,25.1-14.5,25.1h-29Zm-44.5-25.7l-14.5-25.1,14.5-25.1h29l14.5,25.1-14.5,25.1h-29Zm-44.4,25.7l-14.5-25.1,14.5-25.1h29l14.5,25.1-14.5,25.1h-29Zm-59-102.1l14.5-25.1h29l14.5,25.1-14.5,25.1h-29l-14.5-25.1Zm.1-51.3l14.5-25.1h29l14.5,25.1-14.5,25.1h-29l-14.5-25.1Zm-.1-51.3l14.5-25.1h29l14.5,25.1-14.5,25.1h-29l-14.5-25.1Zm0-51.3l14.5-25.1h29l14.5,25.1-14.5,25.1h-29l-14.5-25.1Zm.1-51.4l14.5-25.1h29l14.5,25.1-14.5,25.1h-29l-14.5-25.1Zm-.1-51.3l14.5-25.1h29l14.5,25.1-14.5,25.1h-29l-14.5-25.1Zm0-51.3l14.5-25.1h29l14.5,25.1-14.5,25.1h-29l-14.5-25.1Zm.1-51.3l14.5-25.1h29l14.5,25.1-14.5,25.1h-29l-14.5-25.1Zm-.1-51.4l14.5-25.1h29l14.5,25.1-14.5,25.1h-29l-14.5-25.1Zm0-51.3l14.5-25.1h29l14.5,25.1-14.5,25.1h-29l-14.5-25.1Zm.1-51.3l14.5-25.1h29l14.5,25.1-14.5,25.1h-29l-14.5-25.1Zm87.8-102.1l14.5,25.1-14.5,25.1h-29l-14.5-25.1,14.5-25.1h29Zm44.5,25.7l14.5,25.1-14.5,25.1h-29l-14.5-25.1,14.5-25.1h29Zm44.5-25.7l14.5,25.1-14.5,25.1h-29l-14.5-25.1,14.5-25.1h29Zm44.5,25.7l14.5,25.1-14.5,25.1h-29l-14.5-25.1,14.5-25.1h29Zm44.5-25.7l14.5,25.1-14.5,25.1h-29l-14.5-25.1,14.5-25.1h29Zm44.5,25.7l14.5,25.1-14.5,25.1h-29l-14.5-25.1,14.5-25.1h29Zm44.4-25.7l14.5,25.1-14.5,25.1h-28.9l-14.5-25.1,14.5-25.1h28.9Zm44.5,25.7l14.5,25.1-14.5,25.1h-29l-14.5-25.1,14.5-25.1h29Zm44.5-25.7l14.5,25.1-14.5,25.1h-29l-14.5-25.1,14.5-25.1h29Zm89,0l14.5,25.1-14.5,25.1h-29l-14.5-25.1,14.5-25.1h29Zm44.5,25.7l14.5,25.1-14.5,25.1h-29l-14.5-25.1,14.5-25.1h29Zm44.4-25.7l14.5,25.1-14.5,25.1h-28.9l-14.5-25.1,14.5-25.1h28.9Zm59,102.1l-14.5,25.1h-29l-14.5-25.1,14.5-25.1h29l14.5,25.1Zm-.1,51.3l-14.5,25.1h-29l-14.5-25.1,14.5-25.1h29l14.5,25.1Zm.1,51.3l-14.5,25.1h-29l-14.5-25.1,14.5-25.1h29l14.5,25.1Zm0,51.4l-14.5,25.1h-29l-14.5-25.1,14.5-25.1h29l14.5,25.1Zm-.1,51.3l-14.5,25.1h-29l-14.5-25.1,14.5-25.1h29l14.5,25.1Zm.1,51.3l-14.5,25.1h-29l-14.5-25.1,14.5-25.1h29l14.5,25.1Zm0,51.3l-14.5,25.1h-29l-14.5-25.1,14.5-25.1h29l14.5,25.1Zm-.1,51.4l-14.5,25.1h-29l-14.5-25.1,14.5-25.1h29l14.5,25.1Zm.1,51.3l-14.5,25.1h-29l-14.5-25.1,14.5-25.1h29l14.5,25.1Zm0,51.3l-14.5,25.1h-29l-14.5-25.1,14.5-25.1h29l14.5,25.1Zm-.1,51.3l-14.5,25.1h-29l-14.5-25.1,14.5-25.1h29l14.5,25.1Zm.1,51.4l-14.5,25.1h-29l-14.5-25.1,14.5-25.1h29l14.5,25.1Zm-14.5,76.4h-29l-14.5-25.1,14.5-25.1h29l14.5,25.1-14.5,25.1Zm-30,.5l-14.5,25.1h-29l-14.4-25,14.5-25.1h29l14.4,25Zm-58.9-.5h-28.9l-14.5-25.1,14.5-25.1h28.9l14.5,25.1-14.5,25.1Zm-30,.5l-14.5,25.1h-29l-14.4-25,14.5-25.1h29l14.4,25Zm-59-.5h-29l-14.5-25.1,14.5-25.1h29l1,1.7,13.5,23.3-14.5,25.2Zm-89,0h-29l-14.5-25.1,14.5-25.1h29l14.5,25.1-14.5,25.1Zm-30,.5l-14.5,25.1h-29l-14.4-25,14.5-25.1h29l14.4,25Zm-58.9-.5h-28.9l-14.5-25.1,14.5-25.1h28.9l14.5,25.1-14.5,25.1Zm-30,.5l-14.5,25.1h-29l-14.4-25,14.5-25.1h29l14.4,25Zm-59-.5h-29l-14.5-25.1,14.5-25.1h29l14.5,25.1-14.5,25.1Zm-30,.5l-14.5,25.1h-29l-14.4-25,14.5-25.1h29l14.4,25Zm-59-.5h-29l-14.5-25.1,14.5-25.1h29l14.5,25.1-14.5,25.1Zm-30,.5l-14.5,25.1h-29l-14.4-25,14.5-25.1h29l14.4,25Zm-58.9-.5h-29l-14.5-25.1,14.5-25.1h29l14.5,25.1-14.5,25.1Zm-30,.5l-14.5,25.1h-29l-14.4-25,14.5-25.1h29l14.4,25Zm-58-51.3l14.5-25.1h29l14.5,25.1-14.5,25.1h-29l-14.5-25.1Zm0-51.3l14.5-25.1h29l14.5,25.1-14.5,25.1h-29l-14.5-25.1Zm0-51.3l14.5-25.1h29l14.4,25-14.5,25.1h-29l-14.4-25Zm0-51.4l14.5-25.1h29l14.5,25.1-14.5,25.1h-29l-14.5-25.1Zm0-51.3l14.5-25.1h29l14.5,25.1-14.5,25.1h-29l-14.5-25.1Zm0-51.2l14.5-25.1h29l14.4,25-14.5,25.1h-29l-14.4-25Zm0-51.4l14.5-25.1h29l14.5,25.1-14.5,25.1h-29l-14.5-25.1Zm0-51.3l14.5-25.1h29l14.5,25.1-14.5,25.1h-29l-14.5-25.1Zm0-51.3l14.5-25.1h29l14.4,25-14.5,25.1h-29l-14.4-25Zm0-51.4l14.5-25.1h29l14.5,25.1-14.5,25.1h-29l-14.5-25.1Zm0-51.3l14.5-25.1h29l14.5,25.1-14.5,25.1h-29l-14.5-25.1Zm0-51.3l14.5-25.1h29l14.4,25-14.5,25.1h-29l-14.4-25Zm0-51.4l14.5-25.1h29l14.5,25.1-14.5,25.1h-29l-14.5-25.1Zm0-51.3l14.5-25.1h29l14.5,25.1-14.5,25.1h-29l-14.5-25.1Zm0-51.3l14.5-25.1h29l14.4,25-14.5,25.1h-29l-14.4-25Zm59,.6h29l14.5,25.1-14.5,25.1h-29l-14.5-25.1,14.5-25.1Zm30-.6l14.5-25.1h29l14.4,25-14.5,25.1h-29l-14.4-25Zm58.9.6h29l14.5,25.1-14.5,25.1h-29l-14.5-25.1,14.5-25.1Zm30-.6l14.5-25.1h29l14.4,25-14.5,25.1h-29l-14.4-25Zm59,.6h29l14.5,25.1-14.5,25.1h-29l-14.5-25.1,14.5-25.1Zm30-.6l14.5-25.1h29l14.4,25-14.5,25.1h-29l-14.4-25Zm59,.6h29l14.5,25.1-14.5,25.1h-29l-14.5-25.1,14.5-25.1Zm30-.6l14.5-25.1h29l14.4,25-14.5,25.1h-29l-14.4-25Zm58.9.6h28.9l14.5,25.1-14.5,25.1h-28.9l-14.5-25.1,14.5-25.1Zm89,0h29l14.5,25.1-14.5,25.1h-29l-1-1.7-13.5-23.3,14.5-25.2Zm89,0h29l14.5,25.1-14.5,25.1h-29l-14.5-25.1,14.5-25.1Zm30-.6l14.5-25.1h29l14.4,25-14.5,25.1h-29l-14.4-25Zm58.9.6h29l14.5,25.1-14.5,25.1h-29l-14.5-25.1,14.5-25.1Zm88,50.7l-14.5,25.1h-29l-14.5-25.1,14.5-25.1h29l14.5,25.1Zm0,51.3l-14.5,25.1h-29l-1-1.7-13.5-23.3,14.5-25.1h29l14.5,25Zm0,51.3l-14.5,25.1h-29l-14.4-25,14.5-25.1h29l14.4,25Zm0,51.4l-14.5,25.1h-29l-14.5-25.1,14.5-25.1h29l14.5,25.1Zm0,51.3l-14.5,25.1h-29l-1-1.7-13.5-23.3,14.5-25.1h29l14.5,25Zm0,51.3l-14.5,25.1h-29l-14.4-25,14.5-25.1h29l14.4,25Zm0,51.4l-14.5,25.1h-29l-14.5-25.1,14.5-25.1h29l14.5,25.1Zm0,51.3l-14.5,25.1h-29l-1.1-2-13.3-23.1,14.5-25.1h29l14.4,25.1Zm0,51.2l-14.5,25.1h-29l-14.4-25,14.5-25.1h29l14.4,25Zm0,51.4l-14.5,25.1h-29l-14.5-25.1,14.5-25.1h29l14.5,25.1Zm0,51.3l-14.5,25.1h-29l-1-1.7-13.5-23.3,14.5-25.1h29l14.5,25Zm0,51.3l-14.5,25.1h-29l-14.4-25,14.5-25.1h29l14.4,25Zm0,51.4l-14.5,25.1h-29l-14.5-25.1,14.5-25.1h29l14.5,25.1Zm0,51.3l-14.5,25.1h-29l-1-1.7-13.5-23.3,14.5-25.2h29l14.5,25.1Zm-88,102.1l-14.5-25.1,14.5-25.1h29l14.5,25.1-14.5,25.1h-29Zm-88.9,0l-14.5-25.1,14.5-25.1h29l14.5,25.1-14.5,25.1h-29Zm-178,0l-14.5-25.1,14.5-25.1h28.9l14.5,25.1-14.5,25.1h-28.9Zm-88.9,0l-14.5-25.1,14.5-25.1h29l14.5,25.1-14.5,25.1h-29Zm-89,0l-14.5-25.1,14.5-25.1h29l14.5,25.1-14.5,25.1h-29Zm-89,0l-14.5-25.1,14.5-25.1h29l14.5,25.1-14.5,25.1h-29Zm-88.9,0l-14.5-25.1,14.5-25.1h29l14.5,25.1-14.5,25.1h-29Zm-103.4-76.4l14.5-25.1h29l14.5,25.1-14.5,25.1h-29l-14.5-25.1Zm-.1-51.3l14.5-25.1h29l14.5,25.1-14.5,25.1h-29l-14.5-25.1Zm0-51.4l14.5-25.1h29l14.5,25.1-14.5,25.1h-29l-14.5-25.1Zm.1-51.3l14.5-25.1h29l14.5,25.1-14.5,25.1h-29l-14.5-25.1Zm-.1-51.3l14.5-25.1h29l14.5,25.1-14.5,25.1h-29l-14.5-25.1Zm0-51.3l14.5-25.1h29l14.5,25.1-14.5,25.1h-29l-14.5-25.1Zm.1-51.4l14.5-25.1h29l14.5,25.1-14.5,25.1h-29l-14.5-25.1Zm-.1-51.3l14.5-25.1h29l14.5,25.1-14.5,25.1h-29l-14.5-25.1Zm0-51.3l14.5-25.1h29l14.5,25.1-14.5,25.1h-29l-14.5-25.1Zm.1-51.3l14.5-25.1h29l14.5,25.1-14.5,25.1h-29l-14.5-25.1Zm-.1-51.4l14.5-25.1h29l14.5,25.1-14.5,25.1h-29l-14.5-25.1Zm0-51.3l14.5-25.1h29l14.5,25.1-14.5,25.1h-29l-14.5-25.1Zm.1-51.3l14.5-25.1h29l14.5,25.1-14.5,25.1h-29l-14.5-25.1Zm-.1-51.3l14.5-25.1h29l14.5,25.1-14.5,25.1h-29l-14.5-25.1Zm0-51.4l14.5-25.1h29l14.5,25.1-14.5,25.1h-29l-14.5-25.1Zm132.5-76.4l14.5,25.1-14.5,25.1h-29l-14.5-25.1,14.5-25.1h29Zm88.9,0l14.5,25.1-14.5,25.1h-29l-14.5-25.1,14.5-25.1h29Zm89,0l14.5,25.1-14.5,25.1h-29l-14.5-25.1,14.5-25.1h29Zm89,0l14.5,25.1-14.5,25.1h-28.9l-14.5-25.1,14.5-25.1h28.9Zm88.9,0l14.5,25.1-14.5,25.1h-29l-14.5-25.1,14.5-25.1h29Zm178,0l14.5,25.1-14.5,25.1h-28.9l-14.5-25.1,14.5-25.1h28.9Zm88.9,0l14.5,25.1-14.5,25.1h-29l-14.5-25.1,14.5-25.1h29Zm103.4,76.4l-14.5,25.1h-29l-1-1.7-13.5-23.3,14.5-25.1h29l14.5,25Zm.1,51.4l-14.5,25.1h-29l-14.5-25.1,14.5-25.1h29l14.5,25.1Zm0,51.3l-14.5,25.1h-29l-14.5-25.1,14.5-25.1h29l14.5,25.1Zm-.1,51.3l-14.5,25.1h-29l-1-1.7-13.5-23.3,14.5-25.1h29l14.5,25Zm.1,51.3l-14.5,25.1h-29l-14.5-25.1,14.5-25.1h29l14.5,25.1Zm0,51.4l-14.5,25.1h-29l-14.5-25.1,14.5-25.1h29l14.5,25.1Zm-.1,51.3l-14.5,25.1h-29l-1-1.7-13.5-23.3,14.5-25.1h29l14.5,25Zm.1,51.3l-14.5,25.1h-29l-14.5-25.1,14.5-25.1h29l14.5,25.1Zm0,51.3l-14.5,25.1h-29l-14.5-25.1,14.5-25.1h29l14.5,25.1Zm-.1,51.4l-14.5,25.1h-29l-1.1-2-13.3-23.1,14.5-25.1h29l14.4,25.1Zm.1,51.3l-14.5,25.1h-29l-14.5-25.1,14.5-25.1h29l14.5,25.1Zm0,51.3l-14.5,25.1h-29l-14.5-25.1,14.5-25.1h29l14.5,25.1Zm-.1,51.3l-14.5,25.1h-29l-1-1.7-13.5-23.3,14.5-25.1h29l14.5,25Zm.1,51.4l-14.5,25.1h-29l-14.5-25.1,14.5-25.1h29l14.5,25.1Zm30,51.9l14.4,25-14.5,25.1h-29l-14.4-25,14.5-25.1h29Zm14.4,76.4l-14.5,25.1h-29l-14.5-25.1,14.6-25.1h29l14.4,25.1Zm-87.9,50.7l-14.5-25.1,14.5-25.1h29l14.5,25.1-14.5,25.1h-29Zm-89,0l-14.5-25.1,14.5-25.1h29l14.5,25.1-14.5,25.1h-29Zm-15.5,25.7h-28.9l-14.5-25.1,14.5-25.1h28.9l14.5,25.1-14.5,25.1Zm-73.5-25.7l-14.5-25.1,14.5-25.1h29l14.5,25.1-14.5,25.1h-29Zm-15.4,25.7h-29l-14.5-25.1,14.5-25.1h29l14.5,25.1-14.5,25.1Zm-162.5-25.7l-14.5-25.1,14.5-25.1h29l14.5,25.1-14.5,25.1h-29Zm-15.5,25.7h-28.9l-14.5-25.1,14.5-25.1h28.9l14.5,25.1-14.5,25.1Zm-73.4-25.7l-14.5-25.1,14.5-25.1h29l14.5,25.1-14.5,25.1h-29Zm-15.5,25.7h-29l-14.5-25.1,14.5-25.1h29l14.5,25.1-14.5,25.1Zm-73.5-25.7l-14.5-25.1,14.5-25.1h29l14.5,25.1-14.5,25.1h-29Zm-15.5,25.7h-29l-14.5-25.1,14.5-25.1h29l14.5,25.1-14.5,25.1Zm-73.5-25.7l-14.5-25.1,14.5-25.1h29l14.5,25.1-14.5,25.1h-29Zm-15.5,25.7h-29l-14.5-25.1,14.6-25.1h29l14.5,25.1-14.6,25.1Zm-73.4-25.7l-14.5-25.1,14.5-25.1h29l14.5,25.1-14.5,25.1h-29Zm-15.5,25.7h-29l-14.5-25.1,14.5-25.1h29l14.5,25.1-14.5,25.1Zm-73.5-25.7l-14.5-25.1,14.5-25.1h29l14.5,25.1-14.5,25.1h-29Zm-58.9-50.7l14.5-25.1h29l14.5,25.1-14.5,25.1h-29l-14.5-25.1Zm-.1-51.3l14.5-25.1h29l14.4,25-14.5,25.1h-29l-14.4-25Zm.1-51.4l14.5-25.1h29l14.5,25.1-14.5,25.1h-29l-14.5-25.1Zm0-51.3l14.5-25.1h29l14.5,25.1-14.5,25.1h-29l-14.5-25.1Zm-.1-51.3l14.5-25.1h29l14.4,25-14.5,25.1h-29l-14.4-25Zm.1-51.4l14.5-25.1h29l14.5,25.1-14.5,25.1h-29l-14.5-25.1Zm0-51.3l14.5-25.1h29l14.5,25.1-14.5,25.1h-29l-14.5-25.1Zm-.1-51.2l14.5-25.1h29l14.4,25-14.5,25.1h-29l-14.4-25Zm.1-51.4l14.5-25.1h29l14.5,25.1-14.5,25.1h-29l-14.5-25.1Zm0-51.3l14.5-25.1h29l14.5,25.1-14.5,25.1h-29l-14.5-25.1Zm-.1-51.3l14.5-25.1h29l14.4,25-14.5,25.1h-29l-14.4-25Zm.1-51.4l14.5-25.1h29l14.5,25.1-14.5,25.1h-29l-14.5-25.1Zm0-51.3l14.5-25.1h29l14.5,25.1-14.5,25.1h-29l-14.5-25.1Zm-.1-51.3l14.5-25.1h29l14.4,25-14.5,25.1h-29l-14.4-25Zm.1-51.4l14.5-25.1h29l14.5,25.1-14.5,25.1h-29l-14.5-25.1Zm0-51.3l14.5-25.1h29l14.5,25.1-14.5,25.1h-29l-14.5-25.1Zm-.1-51.3l14.5-25.1h29l14.4,25-14.5,25.1h-29l-14.4-25Zm.1-51.3l14.5-25.1h29l14.5,25.1-14.5,25.1h-29l-14.5-25.1Zm87.9-50.8l14.5,25.1-14.5,25.1h-29l-14.5-25.1,14.5-25.1h29Zm15.5-25.6h29l14.5,25.1-14.5,25.1h-29l-14.5-25.1,14.5-25.1Zm73.5,25.6l14.5,25.1-14.5,25.1h-29l-14.5-25.1,14.5-25.1h29Zm15.5-25.6h29l14.5,25.1-14.5,25.1h-29l-14.5-25.1,14.5-25.1Zm73.4,25.6l14.5,25.1-14.5,25.1h-29l-14.5-25.1,14.5-25.1h29Zm15.5-25.6h29l14.5,25.1-14.5,25.1h-29l-14.5-25.1,14.5-25.1Zm73.5,25.6l14.5,25.1-14.5,25.1h-29l-14.5-25.1,14.5-25.1h29Zm15.5-25.6h29l14.5,25.1-14.5,25.1h-29l-14.5-25.1,14.5-25.1Zm73.5,25.6l14.5,25.1-14.5,25.1h-29l-14.5-25.1,14.5-25.1h29Zm15.5-25.6h28.9l14.5,25.1-14.5,25.1h-28.9l-14.5-25.1,14.5-25.1Zm73.4,25.6l14.5,25.1-14.5,25.1h-29l-14.5-25.1,14.5-25.1h29Zm15.5-25.6h29l14.5,25.1-14.5,25.1h-29l-14.5-25.1,14.5-25.1Zm89,0h29l14.5,25.1-14.5,25.1h-29l-14.5-25.1,14.5-25.1Zm73.5,25.6l14.5,25.1-14.5,25.1h-29l-14.5-25.1,14.5-25.1h29Zm15.5-25.6h28.9l14.5,25.1-14.5,25.1h-28.9l-14.5-25.1,14.5-25.1Zm73.4,25.6l14.5,25.1-14.5,25.1h-29l-14.5-25.1,14.5-25.1h29Zm15.5-25.6h29l14.5,25.1-14.5,25.1h-29l-14.5-25.1,14.5-25.1Zm132.4,76.4l-14.5,25.1h-29l-14.5-25.1,14.5-25.1h29l14.5,25.1Zm.1,51.2l-14.5,25.1h-29l-14.4-25,14.4-25.1h29l14.5,25Zm-.1,51.4l-14.5,25.1h-29l-14.5-25.1,14.6-25.1h29l14.4,25.1Zm0,51.3l-14.5,25.1h-29l-14.5-25.1,14.6-25h29l14.4,25Zm.1,51.3l-14.5,25.1h-29l-14.4-25,14.4-25.1h29l14.5,25Zm-.1,51.4l-14.5,25.1h-29l-14.5-25.1,14.6-25.1h29l14.4,25.1Zm0,51.3l-14.5,25.1h-29l-14.5-25.1,14.6-25.1h29l14.4,25.1Zm.1,51.3l-14.5,25.1h-29l-14.4-25,14.4-25.1h29l14.5,25Zm-.1,51.4l-14.5,25.1h-29l-14.5-25.1,14.6-25.1h29l14.4,25.1Zm0,51.3l-14.5,25.1h-29l-14.5-25.1,14.6-25.1h29l14.4,25.1Zm.1,51.2l-14.5,25.1h-29l-14.4-25,14.4-25.1h29l14.5,25Zm-.1,51.4l-14.5,25.1h-29l-14.5-25.1,14.6-25.1h29l14.4,25.1Zm0,51.3l-14.5,25.1h-29l-14.5-25.1,14.6-25h29l14.4,25Zm.1,51.3l-14.5,25.1h-29l-14.4-25,14.4-25.1h29l14.5,25Zm-.1,51.4l-14.5,25.1h-29l-14.5-25.1,14.6-25.1h29l14.4,25.1Zm0,51.3l-14.5,25.1h-29l-14.5-25.1,14.6-25.1h29l14.4,25.1Zm44.5,77l-14.5,25.1h-29l-14.5-25.1,14.5-25.1h29l14.5,25.1Zm-14.4,76.4h-29l-14.5-25.1,14.5-25.1h29l14.5,25.1-14.5,25.1Zm-43.5,26.2l14.5-25.1h28.9l14.5,25.1-14.5,25.1h-28.9l-14.5-25.1Zm-88.9,0l14.5-25.1h29l14.4,25.1-14.5,25.1h-29l-14.4-25.1Zm-89,0l14.5-25.1h29l14.4,25.1-14.5,25.1h-29l-14.4-25.1Zm-89,0l14.5-25.1h28.9l14.5,25.1-14.5,25.1h-28.9l-14.5-25.1Zm-88.9,0l14.5-25.1h29l1,1.7,13.5,23.3-14.5,25.1h-29l-14.5-25Zm-89,0l14.5-25.1h29l14.5,25.1-14.5,25.1h-29l-14.5-25.1Zm-89,0l14.5-25.1h28.9l14.5,25.1-14.5,25.1h-28.9l-14.5-25.1Zm-88.9,0l14.5-25.1h29l14.5,25.1-14.5,25.1h-29l-14.5-25.1Zm-89,0l14.5-25.1h29l14.5,25.1-14.5,25.1h-29l-14.5-25.1Zm-88.9,0l14.5-25.1h29l14.5,25.1-14.5,25.1h-29l-14.5-25.1Zm-89,0l14.5-25.1h29l14.5,25.1-14.5,25.1h-29l-14.5-25.1Zm-89,0l14.5-25.1h29l14.5,25.1-14.5,25.1h-29l-14.5-25.1Zm14.4-76.3h29l14.5,25.1-14.5,25.1h-29l-14.5-25.1,14.5-25.1Zm-14.4-26.3l14.5-25.1h29l14.5,25.1-14.5,25.1h-29l-14.5-25.1Zm0-51.3l14.5-25.1h29l14.5,25.1-14.5,25.1h-29l-14.5-25.1Zm14.4-76.4h29l14.5,25.1-14.5,25.1h-29l-14.5-25.1,14.5-25.1Zm-14.4-26.3l14.5-25.1h29l14.5,25.1-14.5,25.1h-29l-14.5-25.1Zm0-51.3l14.5-25.1h29l14.5,25.1-14.5,25.1h-29l-14.5-25.1Zm14.4-76.4h29l14.5,25.1-14.5,25.1h-29l-14.5-25.1,14.5-25.1Zm-14.4-26.2l14.5-25.1h29l14.5,25.1-14.5,25.1h-29l-14.5-25.1Zm0-51.4l14.5-25.1h29l14.5,25.1-14.5,25.1h-29l-14.5-25.1Zm14.4-76.4h29l14.5,25.1-14.5,25.1h-29l-14.5-25.1,14.5-25.1Zm-14.4-26.2l14.5-25.1h29l14.5,25.1-14.5,25.1h-29l-14.5-25.1Zm0-51.3l14.5-25.1h29l14.5,25.1-14.5,25.1h-29l-14.5-25.1Zm14.4-76.4h29l14.5,25.1-14.5,25.1h-29l-14.5-25.1,14.5-25.1Zm-14.4-26.3l14.5-25.1h29l14.5,25.1-14.5,25.1h-29l-14.5-25.1Zm0-51.3l14.5-25.1h29l14.5,25.1-14.5,25.1h-29l-14.5-25.1Zm14.4-76.4h29l14.5,25.1-14.5,25.1h-29l-14.5-25.1,14.5-25.1Zm-14.4-26.3l14.5-25.1h29l14.5,25.1-14.5,25.1h-29l-14.5-25.1Zm0-51.3l14.5-25.1h29l14.5,25.1-14.5,25.1h-29l-14.5-25.1Zm14.4-76.4h29l14.5,25.1-14.5,25.1h-29l-14.5-25.1,14.5-25.1Zm43.5-26.2l-14.5,25.1h-29l-14.5-25.1,14.5-25.1h29l14.5,25.1Zm88.9,0l-14.5,25.1h-29l-14.5-25.1,14.5-25.1h29l14.5,25.1Zm89,0l-14.5,25.1h-29l-14.5-25.1,14.5-25.1h29l14.5,25.1Zm89,0l-14.5,25.1h-29l-14.5-25.1,14.5-25.1h29l14.5,25.1Zm88.9,0l-14.5,25.1h-29l-14.5-25.1,14.5-25.1h29l14.5,25.1Zm89,0l-14.5,25.1h-29l-14.5-25.1,14.5-25.1h29l14.5,25.1Zm89,0l-14.5,25.1h-28.9l-14.5-25.1,14.5-25.1h28.9l14.5,25.1Zm88.9,0l-14.5,25.1h-29l-1-1.7-13.5-23.3,14.5-25.1h29l14.5,25Zm89,0l-14.5,25.1h-29l-14.5-25.1,14.5-25.1h29l14.5,25.1Zm88.9,0l-14.5,25.1h-29l-14.5-25.1,14.5-25.1h29l14.5,25.1Zm89,0l-14.5,25.1h-29l-1-1.7-13.5-23.3,14.5-25.1h29l14.5,25Zm89,0l-14.5,25.1h-29l-14.5-25.1,14.5-25.1h29l14.5,25.1Zm-14.4,76.4h-29l-14.5-25.1,14.5-25.1h29l14.5,25.1-14.5,25.1Zm14.4,26.2l-14.5,25.1h-28.9l-14.5-25.1,14.5-25.1h28.9l14.5,25.1Zm0,51.3l-14.5,25.1h-29l-14.5-25.1,14.5-25.1h29l14.5,25.1Zm-14.4,76.4h-29l-14.5-25.1,14.5-25.1h29l14.5,25.1-14.5,25.1Zm14.4,26.3l-14.5,25.1h-28.9l-14.5-25.1,14.5-25.1h28.9l14.5,25.1Zm0,51.3l-14.5,25.1h-29l-14.5-25.1,14.5-25.1h29l14.5,25.1Zm-14.4,76.4h-29l-14.5-25.1,14.5-25.1h29l14.5,25.1-14.5,25.1Zm14.4,26.3l-14.5,25.1h-28.9l-14.5-25.1,14.5-25.1h28.9l14.5,25.1Zm0,51.3l-14.5,25.1h-29l-14.5-25.1,14.5-25.1h29l14.5,25.1Zm-14.4,76.4h-29l-14.5-25.1,14.5-25.1h29l14.5,25.1-14.5,25.1Zm14.4,26.2l-14.5,25.1h-28.9l-14.5-25.1,14.5-25.1h28.9l14.5,25.1Zm0,51.4l-14.5,25.1h-29l-14.5-25.1,14.5-25.1h29l14.5,25.1Zm-14.4,76.4h-29l-14.5-25.1,14.5-25.1h29l14.5,25.1-14.5,25.1Zm14.4,26.2l-14.5,25.1h-28.9l-14.5-25.1,14.5-25.1h28.9l14.5,25.1Zm0,51.3l-14.5,25.1h-29l-14.5-25.1,14.5-25.1h29l14.5,25.1Zm-14.4,76.4h-29l-14.5-25.1,14.5-25.1h29l14.5,25.1-14.5,25.1Z"/>
    </g>
  </g>
</svg>