<?xml version="1.0" encoding="utf-8"?>
<!-- Generator: Adobe Illustrator 26.5.1, SVG Export Plug-In . SVG Version: 6.00 Build 0)  -->
<svg version="1.1" id="Capa_1" xmlns="http://www.w3.org/2000/svg" xmlns:xlink="http://www.w3.org/1999/xlink" x="0px" y="0px"
	 viewBox="0 0 1920 1080" style="enable-background:new 0 0 1920 1080;" xml:space="preserve">
<style type="text/css">
	.st0{fill:url(#SVGID_1_);}
</style>


<linearGradient id="SVGID_1_" gradientUnits="userSpaceOnUse" x1="880.7031" y1="539.489" x2="1920" y2="539.489" gradientTransform="matrix(-1 0 0 1 2800.7031 0)">
	<stop  offset="0" style="stop-color:#282828"/>
	<stop  offset="0.143" style="stop-color:#525252"/>
	<stop  offset="0.3679" style="stop-color:#8F8F8F"/>
	<stop  offset="0.5743" style="stop-color:#BFBFBF"/>
	<stop  offset="0.7549" style="stop-color:#E2E2E2"/>
	<stop  offset="0.903" style="stop-color:#F7F7F7"/>
	<stop  offset="1" style="stop-color:#FFFFFF"/>
</linearGradient>
<path class="st0" d="M880.7,180.2l0.2,0.3l0,0l14.6,25.4l-14.6,25.4l0.5,0.3l-0.5,0.3l14.6,25.4l-14.6,25.4l0.1,0l-0.2,0.3
	l14.8,25.6l-14.8,25.7l0.2,0.3l0,0l14.6,25.4l-14.6,25.4l0.5,0.3l-0.5,0.3l14.6,25.4l-14.6,25.4l0.1,0l-0.2,0.3l14.8,25.6
	l-14.8,25.7l0.2,0.3l0,0l14.6,25.4l-14.6,25.4l0.5,0.3l-0.5,0.3l14.6,25.4l-14.6,25.4l0.1,0l-0.2,0.3l14.8,25.6l-14.8,25.7l0.2,0.3
	l0,0l14.6,25.4l-14.6,25.4l0.5,0.3l-0.5,0.3l14.6,25.4l-14.6,25.4l0.1,0l-0.2,0.3l14.8,25.6l-14.8,25.7l0.2,0.3l0,0l14.6,25.4
	l-14.6,25.4l0.5,0.3l-0.5,0.3l14.6,25.4l-14.6,25.4l0.1,0l-0.2,0.3l14.8,25.6l-14.8,25.7l0.2,0.3l0,0l14.6,25.4l-14.6,25.4l0.5,0.3
	l-0.5,0.3l14.6,25.4l-14.6,25.4l0.1,0l-0.2,0.3l15.2,26.3h30.3l14.8-25.7h29l14.8,25.7h30.3l14.8-25.7h29l14.8,25.7h30.3l14.8-25.7
	h29l14.8,25.7h30.3l14.8-25.7h29l14.8,25.7h30.3l14.8-25.7h29l14.8,25.7h30.3l14.8-25.7h29l14.8,25.7h30.3l14.8-25.7h29l14.8,25.7
	h30.3l14.8-25.7h29l14.8,25.7h30.3l14.8-25.7h29l14.8,25.7h30.3l14.8-25.7h29l14.8,25.7h30.3l14.8-25.7h29l14.8,25.7h30.3l15.2-26.3
	l-0.2-0.3l0,0l-14.6-25.4l14.6-25.4l-0.5-0.3l0.5-0.3l-14.6-25.4l14.6-25.4l0,0l0.2-0.3l-14.8-25.6l14.8-25.7l-0.2-0.3l0,0
	l-14.6-25.4l14.6-25.4l-0.5-0.3l0.5-0.3l-14.6-25.4l14.6-25.4l0,0l0.2-0.3l-14.8-25.6l14.8-25.7l-0.2-0.3l0,0l-14.6-25.4l14.6-25.4
	l-0.5-0.3l0.5-0.3l-14.6-25.4l14.6-25.4l0,0l0.2-0.3l-14.8-25.6l14.8-25.7l-0.2-0.3l0,0l-14.6-25.4l14.6-25.4l-0.5-0.3l0.5-0.3
	l-14.6-25.4l14.6-25.4l0,0l0.2-0.3l-14.8-25.6l14.8-25.7l-0.2-0.3l0,0l-14.6-25.4l14.6-25.4l-0.5-0.3l0.5-0.3l-14.6-25.4l14.6-25.4
	l0,0l0.2-0.3l-14.8-25.6l14.8-25.7l-0.2-0.3l0,0l-14.6-25.4l14.6-25.4l-0.5-0.3l0.5-0.3l-14.6-25.4l14.6-25.4l0,0l0.2-0.3
	l-14.8-25.6l14.8-25.7l-0.2-0.3l0,0l-14.6-25.4l14.6-25.4l-0.5-0.3l0.5-0.3l-14.6-25.4l14.6-25.4l0,0l0.2-0.3L1904.8,0l-30.3,0
	l-14.8,25.7h-29L1815.8,0l-30.3,0l-14.8,25.7h-29L1726.9,0l-30.3,0l-14.8,25.7h-29L1637.9,0l-30.3,0l-14.8,25.7h-29L1548.9,0
	l-30.3,0l-14.8,25.7h-29L1460,0l-30.3,0l-14.8,25.7h-29L1371,0l-30.3,0l-14.8,25.7h-29L1282,0l-30.3,0l-14.8,25.7h-29L1193.1,0
	l-30.3,0l-14.8,25.7h-29L1104.1,0l-30.3,0L1059,25.7h-29L1015.1,0l-30.3,0L970,25.7h-29L926.2,0l-30.3,0l-15.2,26.3l0.2,0.3l0,0
	l14.6,25.4l-14.6,25.4l0.5,0.3l-0.5,0.3l14.6,25.4l-14.6,25.4l0.1,0l-0.2,0.3l14.8,25.6L880.7,180.2z M882.1,180.2l14.5-25.1h28.9
	l14.5,25.1l-14.5,25.1h-28.9L882.1,180.2z M926.6,1027.1l14.5-25.1h29l14.5,25.1l-14.5,25.1h-29L926.6,1027.1z M985.5,1026.5
	l-14.5-25.1l14.5-25.1h29l14.5,25.1l-14.5,25.1H985.5z M1252.4,1026.5l-14.5-25.1l14.5-25.1h29l14.5,25.1l-14.5,25.1H1252.4z
	 M1859.7,1052.1h-29l-14.5-25.1l14.5-25.1h29l14.5,25.1L1859.7,1052.1z M1874.1,51.9L1859.7,77h-29l-14.5-25.1l14.5-25.1h29
	L1874.1,51.9z M1326.9,28.6l13.5,23.3L1325.9,77h-29l-14.5-25.1l14.5-25.1h29L1326.9,28.6z M1281.4,52.5l14.5,25.1l-14.5,25.1h-29
	l-14.5-25.1l14.5-25.1H1281.4z M1060,28.6l13.5,23.3L1059,77h-29l-14.5-25.1l14.5-25.1h29L1060,28.6z M941.1,26.8h29l14.5,25.1
	L970,77h-29l-14.5-25.1L941.1,26.8z M971,950.1l14.5-25.1h29l14.5,25.1l-14.5,25.1h-29L971,950.1z M1015.5,975.7l14.5-25.1h29l1.1,2
	l13.3,23.1l-14.5,25.1h-29L1015.5,975.7z M1104.5,975.7l14.5-25.1h28.9l14.5,25.1l-14.5,25.1H1119L1104.5,975.7z M1193.5,975.7
	l14.5-25.1h29l14.5,25.1l-14.5,25.1h-29L1193.5,975.7z M1252.4,975.2l-1.1-2l-13.3-23.1l14.5-25.1h29l14.5,25.1l-14.5,25.1H1252.4z
	 M1282.4,975.7l14.5-25.1h29l1.1,2l13.3,23.1l-14.5,25.1h-29L1282.4,975.7z M1371.4,975.7l14.5-25.1h28.9l14.5,25.1l-14.5,25.1
	h-28.9L1371.4,975.7z M1460.4,975.7l14.5-25.1h29l14.5,25.1l-14.5,25.1h-29L1460.4,975.7z M1549.3,975.7l14.5-25.1h29l14.5,25.1
	l-14.5,25.1h-29L1549.3,975.7z M1638.3,975.7l14.5-25.1h29l14.5,25.1l-14.5,25.1h-29L1638.3,975.7z M1727.3,975.7l14.5-25.1h29
	l14.5,25.1l-14.5,25.1h-29L1727.3,975.7z M1786.2,975.2l-14.5-25.1l14.5-25.1h29l14.5,25.1l-14.5,25.1H1786.2z M1829.7,128.9
	l-14.5,25.1h-29l-14.5-25.1l14.5-25.1h29L1829.7,128.9z M1785.2,103.2l-14.5,25.1h-29l-14.5-25.1l14.5-25.1h29L1785.2,103.2z
	 M1696.2,103.2l-14.5,25.1h-29l-14.5-25.1l14.5-25.1h29L1696.2,103.2z M1607.2,103.2l-14.5,25.1h-29l-14.5-25.1l14.5-25.1h29
	L1607.2,103.2z M1518.3,103.2l-14.5,25.1h-29l-14.5-25.1l14.5-25.1h29L1518.3,103.2z M1429.3,103.2l-14.5,25.1h-28.9l-14.5-25.1
	l14.5-25.1h28.9L1429.3,103.2z M1340.3,103.2l-14.5,25.1h-29l-14.5-25.1l14.5-25.1h29L1340.3,103.2z M1281.4,103.8l1.1,1.9
	l13.4,23.2l-14.5,25.1h-29l-14.5-25.1l14.5-25.1H1281.4z M1251.4,103.2l-14.5,25.1h-29l-14.5-25.1l14.5-25.1h29L1251.4,103.2z
	 M1162.4,103.2l-14.5,25.1H1119l-14.5-25.1l14.5-25.1h28.9L1162.4,103.2z M1073.4,103.2l-14.5,25.1h-29l-14.5-25.1l14.5-25.1h29
	L1073.4,103.2z M1014.5,103.8l1.1,1.9l13.4,23.2l-14.5,25.1h-29l-14.5-25.1l14.5-25.1H1014.5z M971,180.2l14.5-25.1h29l14.5,25.1
	l-14.5,25.1h-29L971,180.2z M1030,949.5l-14.4-25l14.5-25.1h29l14.4,25l-14.5,25.1H1030z M1236.9,949.5h-29l-14.4-25l14.5-25.1h29
	l14.4,25L1236.9,949.5z M1296.8,949.5l-14.4-25l14.5-25.1h29l14.4,25l-14.5,25.1H1296.8z M1296.9,129.5h29l14.4,25l-14.5,25.1h-29
	l-14.4-25L1296.9,129.5z M1030,129.5h29l14.4,25l-14.5,25.1h-29l-14.4-25L1030,129.5z M1060,847.4l14.5-25.1h29l14.5,25.1
	l-14.5,25.1h-29L1060,847.4z M1252.4,872.5l-14.5-25.1l14.5-25.1h29l14.5,25.1l-14.5,25.1H1252.4z M1697.2,872.5l-14.5-25.1
	l14.5-25.1h29l14.5,25.1l-14.5,25.1H1697.2z M1740.7,231.5l-14.5,25.1h-29l-14.5-25.1l14.5-25.1h29L1740.7,231.5z M1325.9,180.8
	l1,1.7l13.5,23.3l-14.5,25.1h-29l-14.5-25.1l14.5-25.1H1325.9z M1281.4,206.5l14.5,25.1l-14.5,25.1h-29l-14.5-25.1l14.5-25.1H1281.4
	z M1147.9,180.8l14.5,25.1l-14.5,25.1H1119l-14.5-25.1l14.5-25.1H1147.9z M1104.5,821.8l14.5-25.1h28.9l14.5,25.1l-14.5,25.1H1119
	L1104.5,821.8z M1193.5,821.8l14.5-25.1h29l14.5,25.1l-14.5,25.1h-29L1193.5,821.8z M1252.4,821.2l-1-1.7l-13.5-23.3l14.5-25.1h29
	l14.5,25.1l-14.5,25.1H1252.4z M1282.4,821.8l14.5-25.1h29l1,1.7l13.5,23.3l-14.5,25.1h-29L1282.4,821.8z M1371.4,821.8l14.5-25.1
	h28.9l14.5,25.1l-14.5,25.1h-28.9L1371.4,821.8z M1460.4,821.8l14.5-25.1h29l14.5,25.1l-14.5,25.1h-29L1460.4,821.8z M1549.3,821.8
	l14.5-25.1h29l14.5,25.1l-14.5,25.1h-29L1549.3,821.8z M1638.3,821.8l14.5-25.1h29l14.5,25.1l-14.5,25.1h-29L1638.3,821.8z
	 M1696.2,257.2l-14.5,25.1h-29l-14.5-25.1l14.5-25.1h29L1696.2,257.2z M1607.2,257.2l-14.5,25.1h-29l-14.5-25.1l14.5-25.1h29
	L1607.2,257.2z M1518.3,257.2l-14.5,25.1h-29l-14.5-25.1l14.5-25.1h29L1518.3,257.2z M1429.3,257.2l-14.5,25.1h-28.9l-14.5-25.1
	l14.5-25.1h28.9L1429.3,257.2z M1340.3,257.2l-14.5,25.1h-29l-14.5-25.1l14.5-25.1h29L1340.3,257.2z M1281.4,257.8l1,1.7l13.5,23.3
	l-14.5,25.1h-29l-14.5-25.1l14.5-25.1H1281.4z M1251.4,257.2l-14.5,25.1h-29l-14.5-25.1l14.5-25.1h29L1251.4,257.2z M1192.4,257.8
	l14.5,25.1l-14.5,25.1h-29l-14.5-25.1l14.5-25.1H1192.4z M1149,744.8l14.5-25.1h29l14.5,25.1l-14.5,25.1h-29L1149,744.8z
	 M1236.9,795.5h-29l-14.4-25l14.5-25.1h29l14.4,25L1236.9,795.5z M1296.8,795.5l-14.4-25l14.5-25.1h29l14.4,25l-14.5,25.1H1296.8z
	 M1637.3,769.9h-29l-14.5-25.1l14.5-25.1h29l14.5,25.1L1637.3,769.9z M1651.7,334.2l-14.5,25.1h-29l-14.5-25.1l14.5-25.1h29
	L1651.7,334.2z M1296.9,283.5h29l14.4,25l-14.5,25.1h-29l-14.4-25L1296.9,283.5z M1193.5,719.1l14.5-25.1h29l14.5,25.1l-14.5,25.1
	h-29L1193.5,719.1z M1252.4,718.5l-14.5-25.1l14.5-25.1h29l14.5,25.1l-14.5,25.1H1252.4z M1563.8,744.2l-14.5-25.1l14.5-25.1h29
	l14.5,25.1l-14.5,25.1H1563.8z M1607.2,359.9l-14.5,25.1h-29l-14.5-25.1l14.5-25.1h29L1607.2,359.9z M1325.9,334.8l1,1.7l13.5,23.3
	l-14.5,25.1h-29l-14.5-25.1l14.5-25.1H1325.9z M1281.4,360.4l14.5,25.1l-14.5,25.1h-29l-14.5-25.1l14.5-25.1H1281.4z M1237.9,642.1
	l14.5-25.1h29l14.5,25.1l-14.5,25.1h-29l-1-1.7L1237.9,642.1z M1282.4,667.8l14.5-25.1h29l1,1.7l13.5,23.3l-14.5,25.1h-29
	L1282.4,667.8z M1371.4,667.8l14.5-25.1h28.9l14.5,25.1l-14.5,25.1h-28.9L1371.4,667.8z M1460.4,667.8l14.5-25.1h29l14.5,25.1
	l-14.5,25.1h-29L1460.4,667.8z M1519.3,667.2l-14.5-25.1l14.5-25.1h29l14.5,25.1l-14.5,25.1H1519.3z M1562.8,436.8l-14.5,25.1h-29
	l-14.5-25.1l14.5-25.1h29L1562.8,436.8z M1518.3,411.2l-14.5,25.1h-29l-14.5-25.1l14.5-25.1h29L1518.3,411.2z M1429.3,411.2
	l-14.5,25.1h-28.9l-14.5-25.1l14.5-25.1h28.9L1429.3,411.2z M1340.3,411.2l-14.5,25.1h-29l-14.5-25.1l14.5-25.1h29L1340.3,411.2z
	 M1296.8,641.5l-14.4-25l14.5-25.1h29l14.4,25l-14.5,25.1H1296.8z M1341.4,463.1h29l14.5,25.1l-14.5,25.1h-29l-14.5-25.1
	L1341.4,463.1z M1326.9,539.5l14.5-25.1h29l14.5,25.1l-14.5,25.1h-29L1326.9,539.5z M1430.3,564.6l-14.5-25.1l14.5-25.1h29
	l14.5,25.1l-14.5,25.1H1430.3z M1414.8,488.8l14.5,25.1l-14.5,25.1h-28.9l-14.5-25.1l14.5-25.1H1414.8z M1385.9,590.2l-14.5-25.1
	l14.5-25.1h28.9l14.5,25.1l-14.5,25.1H1385.9z M1371.4,462.6l14.5-25.1h29l14.4,25l-14.5,25.1h-29L1371.4,462.6z M1430.3,463.1h28.9
	l14.5,25.1l-14.5,25.1h-28.9l-14.5-25.1L1430.3,463.1z M1460.3,462.6l14.5-25.1h29l14.4,25l-14.5,25.1h-29L1460.3,462.6z
	 M1518.3,513.8l-14.5,25.1h-29l-14.5-25.1l14.5-25.1h29L1518.3,513.8z M1518.3,565.1l-14.5,25.1h-29l-14.5-25.1l14.5-25.1h29
	L1518.3,565.1z M1518.3,616.4l-14.5,25.1h-29l-14.4-25l14.5-25.1h29L1518.3,616.4z M1459.3,615.9h-29l-14.5-25.1l14.5-25.1h29
	l14.5,25.1L1459.3,615.9z M1429.3,616.4l-14.5,25.1h-29l-14.4-25l14.5-25.1h29L1429.3,616.4z M1370.4,615.9h-28.9l-14.5-25.1
	l14.5-25.1h28.9l14.5,25.1L1370.4,615.9z M1282.4,565.1l14.5-25.1h29l14.5,25.1l-14.5,25.1h-29L1282.4,565.1z M1282.4,513.8
	l14.5-25.1h29l1.1,2l13.3,23.1l-14.5,25.1h-29L1282.4,513.8z M1282.4,462.6l14.5-25.1h29l14.4,25l-14.5,25.1h-29L1282.4,462.6z
	 M1370.4,411.8l14.5,25.1l-14.5,25.1h-28.9l-14.5-25.1l14.5-25.1H1370.4z M1459.3,411.8l14.5,25.1l-14.5,25.1h-29l-14.5-25.1
	l14.5-25.1H1459.3z M1562.7,488.2l-14.5,25.1h-29l-14.5-25.1l14.5-25.1h29L1562.7,488.2z M1562.8,539.5l-14.5,25.1h-29l-14.5-25.1
	l14.5-25.1h29L1562.8,539.5z M1562.8,590.8l-14.5,25.1h-29l-14.5-25.1l14.5-25.1h29L1562.8,590.8z M1430.3,667.2l-14.5-25.1
	l14.5-25.1h28.9l14.5,25.1l-14.5,25.1H1430.3z M1341.4,667.2l-14.5-25.1l14.5-25.1h29l14.5,25.1l-14.5,25.1H1341.4z M1238,590.8
	l14.5-25.1h29l1,1.7l13.5,23.3l-14.5,25.1h-29L1238,590.8z M1237.9,539.5l14.5-25.1h29l14.5,25.1l-14.5,25.1h-29L1237.9,539.5z
	 M1237.9,488.2l14.5-25.1h29l14.5,25.1l-14.5,25.1h-29l-1.1-2L1237.9,488.2z M1238,436.8l14.5-25.1h29l1.1,2l13.3,23.1l-14.5,25.1
	h-29L1238,436.8z M1370.4,360.4l14.5,25.1l-14.5,25.1h-29l-14.5-25.1l14.5-25.1H1370.4z M1414.8,334.8l14.5,25.1l-14.5,25.1h-28.9
	l-14.5-25.1l14.5-25.1H1414.8z M1459.3,360.4l14.5,25.1l-14.5,25.1h-29l-14.5-25.1l14.5-25.1H1459.3z M1503.8,334.8l14.5,25.1
	l-14.5,25.1h-29l-14.5-25.1l14.5-25.1H1503.8z M1548.3,360.4l14.5,25.1l-14.5,25.1h-29l-14.5-25.1l14.5-25.1H1548.3z M1607.2,411.2
	l-14.5,25.1h-29l-14.5-25.1l14.5-25.1h29L1607.2,411.2z M1607.3,462.4l-14.5,25.1h-29l-14.4-25l14.5-25.1h29L1607.3,462.4z
	 M1607.2,513.8l-14.5,25.1h-29l-14.5-25.1l14.5-25.1h29L1607.2,513.8z M1607.2,565.1l-14.5,25.1h-29l-14.5-25.1l14.5-25.1h29
	L1607.2,565.1z M1607.3,616.4l-14.5,25.1h-29l-14.4-25l14.5-25.1h29L1607.3,616.4z M1607.2,667.8l-14.5,25.1h-29l-14.5-25.1
	l14.5-25.1h29L1607.2,667.8z M1519.3,718.5l-14.5-25.1l14.5-25.1h29l14.5,25.1l-14.5,25.1H1519.3z M1474.8,744.2l-14.5-25.1
	l14.5-25.1h29l14.5,25.1l-14.5,25.1H1474.8z M1430.3,718.5l-14.5-25.1l14.5-25.1h29l14.5,25.1l-14.5,25.1H1430.3z M1385.9,744.2
	l-14.5-25.1l14.5-25.1h28.9l14.5,25.1l-14.5,25.1H1385.9z M1341.4,718.5l-14.5-25.1l14.5-25.1h29l14.5,25.1l-14.5,25.1H1341.4z
	 M1296.9,744.2l-14.5-25.1l14.5-25.1h29l14.5,25.1l-14.5,25.1H1296.9z M1193.5,667.8l14.5-25.1h29l14.5,25.1l-14.5,25.1h-29
	L1193.5,667.8z M1193.4,616.5l14.5-25.1h29l14.4,25l-14.5,25.1h-29L1193.4,616.5z M1193.5,565.1l14.5-25.1h29l14.5,25.1l-14.5,25.1
	h-29L1193.5,565.1z M1193.5,513.8l14.5-25.1h29l14.5,25.1l-14.5,25.1h-29L1193.5,513.8z M1193.4,462.6l14.5-25.1h29l14.4,25
	l-14.5,25.1h-29L1193.4,462.6z M1193.5,411.2l14.5-25.1h29l14.5,25.1l-14.5,25.1h-29L1193.5,411.2z M1193.5,359.9l14.5-25.1h29
	l14.5,25.1l-14.5,25.1h-29L1193.5,359.9z M1193.4,308.6l14.5-25.1h29l14.4,25l-14.5,25.1h-29L1193.4,308.6z M1252.4,309.1h29
	l14.5,25.1l-14.5,25.1h-29l-1-1.7l-13.5-23.3L1252.4,309.1z M1341.4,309.1h29l14.5,25.1l-14.5,25.1h-29l-14.5-25.1L1341.4,309.1z
	 M1371.4,308.6l14.5-25.1h29l14.4,25l-14.5,25.1h-29L1371.4,308.6z M1430.3,309.1h28.9l14.5,25.1l-14.5,25.1h-28.9l-14.5-25.1
	L1430.3,309.1z M1460.3,308.6l14.5-25.1h29l14.4,25l-14.5,25.1h-29L1460.3,308.6z M1519.3,309.1h29l14.5,25.1l-14.5,25.1h-29
	l-14.5-25.1L1519.3,309.1z M1549.3,308.6l14.5-25.1h29l14.4,25l-14.5,25.1h-29L1549.3,308.6z M1651.8,385.5l-14.5,25.1h-29
	l-14.5-25.1l14.5-25.1h29L1651.8,385.5z M1651.7,436.8l-14.5,25.1h-29l-14.5-25.1l14.5-25.1h29L1651.7,436.8z M1651.7,488.2
	l-14.5,25.1h-29l-14.5-25.1l14.5-25.1h29L1651.7,488.2z M1651.8,539.5l-14.5,25.1h-29l-14.5-25.1l14.5-25.1h29L1651.8,539.5z
	 M1651.7,590.8l-14.5,25.1h-29l-14.5-25.1l14.5-25.1h29L1651.7,590.8z M1651.7,642.1l-14.5,25.1h-29l-14.5-25.1l14.5-25.1h29
	L1651.7,642.1z M1651.8,693.5l-14.5,25.1h-29l-14.5-25.1l14.5-25.1h29L1651.8,693.5z M1607.3,770.4l-14.5,25.1h-29l-14.4-25
	l14.5-25.1h29L1607.3,770.4z M1548.3,769.9h-29l-14.5-25.1l14.5-25.1h29l14.5,25.1L1548.3,769.9z M1518.3,770.4l-14.5,25.1h-29
	l-14.4-25l14.5-25.1h29L1518.3,770.4z M1459.3,769.9h-29l-14.5-25.1l14.5-25.1h29l14.5,25.1L1459.3,769.9z M1429.3,770.4l-14.5,25.1
	h-29l-14.4-25l14.5-25.1h29L1429.3,770.4z M1370.4,769.9h-28.9l-14.5-25.1l14.5-25.1h28.9l14.5,25.1L1370.4,769.9z M1281.4,769.9
	h-29l-14.5-25.1l14.5-25.1h29l1,1.7l13.5,23.3L1281.4,769.9z M1148.9,693.5l14.5-25.1h29l14.5,25.1l-14.5,25.1h-29L1148.9,693.5z
	 M1149,642.1l14.5-25.1h28.9l14.5,25.1l-14.5,25.1h-28.9L1149,642.1z M1149,590.8l14.5-25.1h29l14.5,25.1l-14.5,25.1h-29L1149,590.8
	z M1148.9,539.5l14.5-25.1h29l14.5,25.1l-14.5,25.1h-29L1148.9,539.5z M1149,488.2l14.5-25.1h28.9l14.5,25.1l-14.5,25.1h-28.9
	L1149,488.2z M1149,436.8l14.5-25.1h29l14.5,25.1l-14.5,25.1h-29L1149,436.8z M1148.9,385.5l14.5-25.1h29l14.5,25.1l-14.5,25.1h-29
	L1148.9,385.5z M1149,334.2l14.5-25.1h28.9l14.5,25.1l-14.5,25.1h-28.9L1149,334.2z M1370.4,257.8l14.5,25.1l-14.5,25.1h-28.9
	l-14.5-25.1l14.5-25.1H1370.4z M1459.3,257.8l14.5,25.1l-14.5,25.1h-29l-14.5-25.1l14.5-25.1H1459.3z M1548.3,257.8l14.5,25.1
	l-14.5,25.1h-29l-14.5-25.1l14.5-25.1H1548.3z M1637.3,257.8l14.5,25.1l-14.5,25.1h-29l-14.5-25.1l14.5-25.1H1637.3z M1696.2,308.5
	l-14.5,25.1h-29l-14.4-25l14.5-25.1h29L1696.2,308.5z M1696.2,359.9l-14.5,25.1h-29l-14.5-25.1l14.5-25.1h29L1696.2,359.9z
	 M1696.2,411.2l-14.5,25.1h-29l-14.5-25.1l14.5-25.1h29L1696.2,411.2z M1696.2,462.4l-14.5,25.1h-29l-14.4-25l14.5-25.1h29
	L1696.2,462.4z M1696.2,513.8l-14.5,25.1h-29l-14.5-25.1l14.5-25.1h29L1696.2,513.8z M1696.2,565.1l-14.5,25.1h-29l-14.5-25.1
	l14.5-25.1h29L1696.2,565.1z M1696.2,616.4l-14.5,25.1h-29l-14.4-25l14.5-25.1h29L1696.2,616.4z M1696.2,667.8l-14.5,25.1h-29
	l-14.5-25.1l14.5-25.1h29L1696.2,667.8z M1696.2,719.1l-14.5,25.1h-29l-14.5-25.1l14.5-25.1h29L1696.2,719.1z M1696.2,770.4
	l-14.5,25.1h-29l-14.4-25l14.5-25.1h29L1696.2,770.4z M1608.3,821.2l-14.5-25.1l14.5-25.1h29l14.5,25.1l-14.5,25.1H1608.3z
	 M1519.3,821.2l-14.5-25.1l14.5-25.1h29l14.5,25.1l-14.5,25.1H1519.3z M1430.3,821.2l-14.5-25.1l14.5-25.1h28.9l14.5,25.1
	l-14.5,25.1H1430.3z M1341.4,821.2l-14.5-25.1l14.5-25.1h29l14.5,25.1l-14.5,25.1H1341.4z M1163.4,821.2l-14.5-25.1l14.5-25.1h28.9
	l14.5,25.1l-14.5,25.1H1163.4z M1104.5,770.5l14.5-25.1h29l14.4,25l-14.5,25.1h-29L1104.5,770.5z M1104.5,719.1L1119,694h28.9
	l14.5,25.1l-14.5,25.1H1119L1104.5,719.1z M1104.5,667.8l14.5-25.1h28.9l14.5,25.1l-14.5,25.1H1119L1104.5,667.8z M1104.5,616.5
	l14.5-25.1h29l14.4,25l-14.5,25.1h-29L1104.5,616.5z M1104.5,565.1l14.5-25.1h28.9l14.5,25.1l-14.5,25.1H1119L1104.5,565.1z
	 M1104.5,513.8l14.5-25.1h28.9l14.5,25.1l-14.5,25.1H1119L1104.5,513.8z M1104.5,462.6l14.5-25.1h29l14.4,25l-14.5,25.1h-29
	L1104.5,462.6z M1104.5,411.2l14.5-25.1h28.9l14.5,25.1l-14.5,25.1H1119L1104.5,411.2z M1104.5,359.9l14.5-25.1h28.9l14.5,25.1
	l-14.5,25.1H1119L1104.5,359.9z M1104.5,308.6l14.5-25.1h29l14.4,25l-14.5,25.1h-29L1104.5,308.6z M1104.5,257.2l14.5-25.1h28.9
	l14.5,25.1l-14.5,25.1H1119L1104.5,257.2z M1192.5,206.5l14.5,25.1l-14.5,25.1h-29l-14.5-25.1l14.5-25.1H1192.5z M1236.9,180.8
	l14.5,25.1l-14.5,25.1h-29l-14.5-25.1l14.5-25.1H1236.9z M1370.4,206.5l14.5,25.1l-14.5,25.1h-29l-14.5-25.1l14.5-25.1H1370.4z
	 M1414.8,180.8l14.5,25.1l-14.5,25.1h-28.9l-14.5-25.1l14.5-25.1H1414.8z M1459.3,206.5l14.5,25.1l-14.5,25.1h-29l-14.5-25.1
	l14.5-25.1H1459.3z M1503.8,180.8l14.5,25.1l-14.5,25.1h-29l-14.5-25.1l14.5-25.1H1503.8z M1548.3,206.5l14.5,25.1l-14.5,25.1h-29
	l-14.5-25.1l14.5-25.1H1548.3z M1592.8,180.8l14.5,25.1l-14.5,25.1h-29l-14.5-25.1l14.5-25.1H1592.8z M1637.3,206.5l14.5,25.1
	l-14.5,25.1h-29l-14.5-25.1l14.5-25.1H1637.3z M1681.7,180.8l14.5,25.1l-14.5,25.1h-29l-14.5-25.1l14.5-25.1H1681.7z M1740.7,282.9
	l-14.5,25.1h-29l-14.5-25.1l14.5-25.1h29L1740.7,282.9z M1740.6,334.2l-14.5,25.1h-29l-14.5-25.1l14.5-25.1h29L1740.6,334.2z
	 M1740.7,385.5l-14.5,25.1h-29l-14.5-25.1l14.5-25.1h29L1740.7,385.5z M1740.7,436.8l-14.5,25.1h-29l-14.5-25.1l14.5-25.1h29
	L1740.7,436.8z M1740.6,488.2l-14.5,25.1h-29l-14.5-25.1l14.5-25.1h29L1740.6,488.2z M1740.7,539.5l-14.5,25.1h-29l-14.5-25.1
	l14.5-25.1h29L1740.7,539.5z M1740.7,590.8l-14.5,25.1h-29l-14.5-25.1l14.5-25.1h29L1740.7,590.8z M1740.6,642.1l-14.5,25.1h-29
	l-14.5-25.1l14.5-25.1h29L1740.6,642.1z M1740.7,693.5l-14.5,25.1h-29l-14.5-25.1l14.5-25.1h29L1740.7,693.5z M1740.7,744.8
	l-14.5,25.1h-29l-14.5-25.1l14.5-25.1h29L1740.7,744.8z M1740.6,796.1l-14.5,25.1h-29l-14.5-25.1l14.5-25.1h29L1740.6,796.1z
	 M1652.8,898.2l-14.5-25.1l14.5-25.1h29l14.5,25.1l-14.5,25.1H1652.8z M1608.3,872.5l-14.5-25.1l14.5-25.1h29l14.5,25.1l-14.5,25.1
	H1608.3z M1563.8,898.2l-14.5-25.1l14.5-25.1h29l14.5,25.1l-14.5,25.1H1563.8z M1519.3,872.5l-14.5-25.1l14.5-25.1h29l14.5,25.1
	l-14.5,25.1H1519.3z M1474.8,898.2l-14.5-25.1l14.5-25.1h29l14.5,25.1l-14.5,25.1H1474.8z M1430.3,872.5l-14.5-25.1l14.5-25.1h29
	l14.5,25.1l-14.5,25.1H1430.3z M1385.9,898.2l-14.5-25.1l14.5-25.1h28.9l14.5,25.1l-14.5,25.1H1385.9z M1341.4,872.5l-14.5-25.1
	l14.5-25.1h29l14.5,25.1l-14.5,25.1H1341.4z M1296.9,898.2l-14.5-25.1l14.5-25.1h29l14.5,25.1l-14.5,25.1H1296.9z M1207.9,898.2
	l-14.5-25.1l14.5-25.1h29l14.5,25.1l-14.5,25.1H1207.9z M1163.4,872.5l-14.5-25.1l14.5-25.1h29l14.5,25.1l-14.5,25.1H1163.4z
	 M1119,898.2l-14.5-25.1L1119,848h28.9l14.5,25.1l-14.5,25.1H1119z M1060,796.1l14.5-25.1h29l14.5,25.1l-14.5,25.1h-29L1060,796.1z
	 M1060.1,744.8l14.5-25.1h29l14.5,25.1l-14.5,25.1h-29L1060.1,744.8z M1060,693.5l14.5-25.1h29l14.5,25.1l-14.5,25.1h-29L1060,693.5
	z M1060,642.1l14.5-25.1h29l14.5,25.1l-14.5,25.1h-29L1060,642.1z M1060.1,590.8l14.5-25.1h29l14.5,25.1l-14.5,25.1h-29
	L1060.1,590.8z M1060,539.5l14.5-25.1h29l14.5,25.1l-14.5,25.1h-29L1060,539.5z M1060,488.2l14.5-25.1h29l14.5,25.1l-14.5,25.1h-29
	L1060,488.2z M1060.1,436.8l14.5-25.1h29l14.5,25.1l-14.5,25.1h-29L1060.1,436.8z M1060,385.5l14.5-25.1h29l14.5,25.1l-14.5,25.1
	h-29L1060,385.5z M1060,334.2l14.5-25.1h29l14.5,25.1l-14.5,25.1h-29L1060,334.2z M1060.1,282.9l14.5-25.1h29l14.5,25.1l-14.5,25.1
	h-29L1060.1,282.9z M1060,231.5l14.5-25.1h29l14.5,25.1l-14.5,25.1h-29L1060,231.5z M1074.5,155.1h29l14.5,25.1l-14.5,25.1h-29
	l-14.5-25.1L1074.5,155.1z M1104.5,154.6l14.5-25.1h29l14.4,25l-14.5,25.1h-29L1104.5,154.6z M1163.4,155.1h28.9l14.5,25.1
	l-14.5,25.1h-28.9l-14.5-25.1L1163.4,155.1z M1193.4,154.6l14.5-25.1h29l14.4,25l-14.5,25.1h-29L1193.4,154.6z M1252.4,155.1h29
	l14.5,25.1l-14.5,25.1h-29l-1-1.7l-13.5-23.3L1252.4,155.1z M1341.4,155.1h29l14.5,25.1l-14.5,25.1h-29l-14.5-25.1L1341.4,155.1z
	 M1371.4,154.6l14.5-25.1h29l14.4,25l-14.5,25.1h-29L1371.4,154.6z M1430.3,155.1h28.9l14.5,25.1l-14.5,25.1h-28.9l-14.5-25.1
	L1430.3,155.1z M1460.3,154.6l14.5-25.1h29l14.4,25l-14.5,25.1h-29L1460.3,154.6z M1519.3,155.1h29l14.5,25.1l-14.5,25.1h-29
	l-14.5-25.1L1519.3,155.1z M1549.3,154.6l14.5-25.1h29l14.4,25l-14.5,25.1h-29L1549.3,154.6z M1608.3,155.1h29l14.5,25.1l-14.5,25.1
	h-29l-14.5-25.1L1608.3,155.1z M1638.3,154.6l14.5-25.1h29l14.4,25l-14.5,25.1h-29L1638.3,154.6z M1697.2,155.1h29l14.5,25.1
	l-14.5,25.1h-29l-14.5-25.1L1697.2,155.1z M1727.2,154.6l14.5-25.1h29l14.4,25l-14.5,25.1h-29L1727.2,154.6z M1785.2,205.9
	l-14.5,25.1h-29l-14.5-25.1l14.5-25.1h29L1785.2,205.9z M1785.2,257.2l-14.5,25.1h-29l-14.5-25.1l14.5-25.1h29L1785.2,257.2z
	 M1785.2,308.5l-14.5,25.1h-29l-14.4-25l14.5-25.1h29L1785.2,308.5z M1785.2,359.9l-14.5,25.1h-29l-14.5-25.1l14.5-25.1h29
	L1785.2,359.9z M1785.2,411.2l-14.5,25.1h-29l-14.5-25.1l14.5-25.1h29L1785.2,411.2z M1785.2,462.4l-14.5,25.1h-29l-14.4-25
	l14.5-25.1h29L1785.2,462.4z M1785.2,513.8l-14.5,25.1h-29l-14.5-25.1l14.5-25.1h29L1785.2,513.8z M1785.2,565.1l-14.5,25.1h-29
	l-14.5-25.1l14.5-25.1h29L1785.2,565.1z M1785.2,616.4l-14.5,25.1h-29l-14.4-25l14.5-25.1h29L1785.2,616.4z M1785.2,667.8
	l-14.5,25.1h-29l-14.5-25.1l14.5-25.1h29L1785.2,667.8z M1785.2,719.1l-14.5,25.1h-29l-14.5-25.1l14.5-25.1h29L1785.2,719.1z
	 M1785.2,770.4l-14.5,25.1h-29l-14.4-25l14.5-25.1h29L1785.2,770.4z M1785.2,821.8l-14.5,25.1h-29l-14.5-25.1l14.5-25.1h29
	L1785.2,821.8z M1785.2,873.1l-14.5,25.1h-29l-14.5-25.1l14.5-25.1h29L1785.2,873.1z M1785.2,924.4l-14.5,25.1h-29l-14.4-25
	l14.5-25.1h29L1785.2,924.4z M1726.2,923.8h-29l-14.5-25.1l14.5-25.1h29l14.5,25.1L1726.2,923.8z M1696.2,924.4l-14.5,25.1h-29
	l-14.4-25l14.5-25.1h29L1696.2,924.4z M1637.3,923.8h-29l-14.5-25.1l14.5-25.1h29l14.5,25.1L1637.3,923.8z M1607.3,924.4l-14.5,25.1
	h-29l-14.4-25l14.5-25.1h29L1607.3,924.4z M1548.3,923.8h-29l-14.5-25.1l14.5-25.1h29l14.5,25.1L1548.3,923.8z M1518.3,924.4
	l-14.5,25.1h-29l-14.4-25l14.5-25.1h29L1518.3,924.4z M1459.3,923.8h-29l-14.5-25.1l14.5-25.1h29l14.5,25.1L1459.3,923.8z
	 M1429.3,924.4l-14.5,25.1h-29l-14.4-25l14.5-25.1h29L1429.3,924.4z M1370.4,923.8h-28.9l-14.5-25.1l14.5-25.1h28.9l14.5,25.1
	L1370.4,923.8z M1281.4,923.8h-29l-14.5-25.1l14.5-25.1h29l1,1.7l13.5,23.3L1281.4,923.8z M1192.4,923.8h-29l-14.5-25.1l14.5-25.1
	h29l14.5,25.1L1192.4,923.8z M1162.4,924.4l-14.5,25.1h-29l-14.4-25l14.5-25.1h29L1162.4,924.4z M1103.5,923.8h-29l-14.5-25.1
	l14.5-25.1h29l14.5,25.1L1103.5,923.8z M1015.5,873.1L1030,848h29l14.5,25.1l-14.5,25.1h-29L1015.5,873.1z M1015.5,821.8l14.5-25.1
	h29l1,1.7l13.5,23.3l-14.5,25.1h-29L1015.5,821.8z M1015.5,770.5l14.5-25.1h29l14.4,25l-14.5,25.1h-29L1015.5,770.5z M1015.5,719.1
	L1030,694h29l14.5,25.1l-14.5,25.1h-29L1015.5,719.1z M1015.5,667.8l14.5-25.1h29l1,1.7l13.5,23.3l-14.5,25.1h-29L1015.5,667.8z
	 M1015.5,616.5l14.5-25.1h29l14.4,25l-14.5,25.1h-29L1015.5,616.5z M1015.5,565.1l14.5-25.1h29l14.5,25.1l-14.5,25.1h-29
	L1015.5,565.1z M1015.5,513.8l14.5-25.1h29l1.1,2l13.3,23.1l-14.5,25.1h-29L1015.5,513.8z M1015.5,462.6l14.5-25.1h29l14.4,25
	l-14.5,25.1h-29L1015.5,462.6z M1015.5,411.2l14.5-25.1h29l14.5,25.1l-14.5,25.1h-29L1015.5,411.2z M1015.5,359.9l14.5-25.1h29
	l1,1.7l13.5,23.3l-14.5,25.1h-29L1015.5,359.9z M1015.5,308.6l14.5-25.1h29l14.4,25l-14.5,25.1h-29L1015.5,308.6z M1015.5,257.2
	l14.5-25.1h29l14.5,25.1l-14.5,25.1h-29L1015.5,257.2z M1015.5,205.9l14.5-25.1h29l1,1.7l13.5,23.3L1059,231h-29L1015.5,205.9z
	 M1103.5,103.8l14.5,25.1l-14.5,25.1h-29l-14.5-25.1l14.5-25.1H1103.5z M1192.4,103.8l14.5,25.1l-14.5,25.1h-29l-14.5-25.1
	l14.5-25.1H1192.4z M1370.4,103.8l14.5,25.1l-14.5,25.1h-28.9l-14.5-25.1l14.5-25.1H1370.4z M1459.3,103.8l14.5,25.1l-14.5,25.1h-29
	l-14.5-25.1l14.5-25.1H1459.3z M1548.3,103.8l14.5,25.1l-14.5,25.1h-29l-14.5-25.1l14.5-25.1H1548.3z M1637.3,103.8l14.5,25.1
	l-14.5,25.1h-29l-14.5-25.1l14.5-25.1H1637.3z M1726.2,103.8l14.5,25.1l-14.5,25.1h-29l-14.5-25.1l14.5-25.1H1726.2z M1829.6,180.2
	l-14.5,25.1h-29l-14.5-25.1l14.5-25.1h29L1829.6,180.2z M1829.7,231.5l-14.5,25.1h-29l-14.5-25.1l14.5-25.1h29L1829.7,231.5z
	 M1829.7,282.9l-14.5,25.1h-29l-14.5-25.1l14.5-25.1h29L1829.7,282.9z M1829.6,334.2l-14.5,25.1h-29l-14.5-25.1l14.5-25.1h29
	L1829.6,334.2z M1829.7,385.5l-14.5,25.1h-29l-14.5-25.1l14.5-25.1h29L1829.7,385.5z M1829.7,436.8l-14.5,25.1h-29l-14.5-25.1
	l14.5-25.1h29L1829.7,436.8z M1829.6,488.2l-14.5,25.1h-29l-14.5-25.1l14.5-25.1h29L1829.6,488.2z M1829.7,539.5l-14.5,25.1h-29
	l-14.5-25.1l14.5-25.1h29L1829.7,539.5z M1829.7,590.8l-14.5,25.1h-29l-14.5-25.1l14.5-25.1h29L1829.7,590.8z M1829.6,642.1
	l-14.5,25.1h-29l-14.5-25.1l14.5-25.1h29L1829.6,642.1z M1829.7,693.5l-14.5,25.1h-29l-14.5-25.1l14.5-25.1h29L1829.7,693.5z
	 M1829.7,744.8l-14.5,25.1h-29l-14.5-25.1l14.5-25.1h29L1829.7,744.8z M1829.6,796.1l-14.5,25.1h-29l-14.5-25.1l14.5-25.1h29
	L1829.6,796.1z M1829.7,847.4l-14.5,25.1h-29l-14.5-25.1l14.5-25.1h29L1829.7,847.4z M1829.7,898.8l-14.5,25.1h-29l-14.5-25.1
	l14.5-25.1h29L1829.7,898.8z M1697.2,975.2l-14.5-25.1l14.5-25.1h29l14.5,25.1l-14.5,25.1H1697.2z M1608.3,975.2l-14.5-25.1
	l14.5-25.1h29l14.5,25.1l-14.5,25.1H1608.3z M1519.3,975.2l-14.5-25.1l14.5-25.1h29l14.5,25.1l-14.5,25.1H1519.3z M1430.3,975.2
	l-14.5-25.1l14.5-25.1h28.9l14.5,25.1l-14.5,25.1H1430.3z M1341.4,975.2l-14.5-25.1l14.5-25.1h29l14.5,25.1l-14.5,25.1H1341.4z
	 M1163.4,975.2l-14.5-25.1l14.5-25.1h28.9l14.5,25.1l-14.5,25.1H1163.4z M1074.5,975.2l-14.5-25.1l14.5-25.1h29l14.5,25.1
	l-14.5,25.1H1074.5z M971.1,898.8l14.5-25.1h29l1,1.7l13.5,23.3l-14.5,25.1h-29L971.1,898.8z M971,847.4l14.5-25.1h29l14.5,25.1
	l-14.5,25.1h-29L971,847.4z M971,796.1l14.5-25.1h29l14.5,25.1l-14.5,25.1h-29L971,796.1z M971.1,744.8l14.5-25.1h29l1,1.7
	l13.5,23.3l-14.5,25.1h-29L971.1,744.8z M971,693.5l14.5-25.1h29l14.5,25.1l-14.5,25.1h-29L971,693.5z M971,642.1l14.5-25.1h29
	l14.5,25.1l-14.5,25.1h-29L971,642.1z M971.1,590.8l14.5-25.1h29l1,1.7l13.5,23.3l-14.5,25.1h-29L971.1,590.8z M971,539.5l14.5-25.1
	h29l14.5,25.1l-14.5,25.1h-29L971,539.5z M971,488.2l14.5-25.1h29l14.5,25.1l-14.5,25.1h-29L971,488.2z M971.1,436.8l14.5-25.1h29
	l1.1,2l13.3,23.1l-14.5,25.1h-29L971.1,436.8z M971,385.5l14.5-25.1h29l14.5,25.1l-14.5,25.1h-29L971,385.5z M971,334.2l14.5-25.1
	h29l14.5,25.1l-14.5,25.1h-29L971,334.2z M971.1,282.9l14.5-25.1h29l1,1.7l13.5,23.3l-14.5,25.1h-29L971.1,282.9z M971,231.5
	l14.5-25.1h29l14.5,25.1l-14.5,25.1h-29L971,231.5z M941,179.6l-14.4-25l14.5-25.1h29l14.4,25L970,179.6H941z M926.6,103.2
	l14.5-25.1h29l14.5,25.1L970,128.3h-29L926.6,103.2z M1014.5,52.5l14.5,25.1l-14.5,25.1h-29L971,77.6l14.5-25.1H1014.5z
	 M1103.5,52.5l14.5,25.1l-14.5,25.1h-29L1060,77.6l14.5-25.1H1103.5z M1119,26.8h28.9l14.5,25.1L1147.9,77H1119l-14.5-25.1
	L1119,26.8z M1192.5,52.5l14.5,25.1l-14.5,25.1h-29l-14.5-25.1l14.5-25.1H1192.5z M1207.9,26.8h29l14.5,25.1L1236.9,77h-29
	l-14.5-25.1L1207.9,26.8z M1370.4,52.5l14.5,25.1l-14.5,25.1h-29l-14.5-25.1l14.5-25.1H1370.4z M1385.9,26.8h28.9l14.5,25.1
	L1414.8,77h-28.9l-14.5-25.1L1385.9,26.8z M1459.3,52.5l14.5,25.1l-14.5,25.1h-29l-14.5-25.1l14.5-25.1H1459.3z M1474.8,26.8h29
	l14.5,25.1L1503.8,77h-29l-14.5-25.1L1474.8,26.8z M1548.3,52.5l14.5,25.1l-14.5,25.1h-29l-14.5-25.1l14.5-25.1H1548.3z
	 M1563.8,26.8h29l14.5,25.1L1592.8,77h-29l-14.5-25.1L1563.8,26.8z M1637.3,52.5l14.5,25.1l-14.5,25.1h-29l-14.5-25.1l14.5-25.1
	H1637.3z M1652.8,26.8h29l14.5,25.1L1681.7,77h-29l-14.5-25.1L1652.8,26.8z M1726.2,52.5l14.5,25.1l-14.5,25.1h-29l-14.5-25.1
	l14.5-25.1H1726.2z M1741.7,26.8h29l14.5,25.1L1770.7,77h-29l-14.5-25.1L1741.7,26.8z M1815.2,52.5l14.5,25.1l-14.5,25.1h-29
	l-14.5-25.1l14.5-25.1H1815.2z M1874.1,103.2l-14.5,25.1h-29l-14.5-25.1l14.5-25.1h29L1874.1,103.2z M1874.2,154.5l-14.5,25.1h-29
	l-14.4-25l14.5-25.1h29L1874.2,154.5z M1874.1,205.9l-14.5,25.1h-29l-14.5-25.1l14.5-25.1h29L1874.1,205.9z M1874.1,257.2
	l-14.5,25.1h-29l-14.5-25.1l14.5-25.1h29L1874.1,257.2z M1874.2,308.5l-14.5,25.1h-29l-14.4-25l14.5-25.1h29L1874.2,308.5z
	 M1874.1,359.9l-14.5,25.1h-29l-14.5-25.1l14.5-25.1h29L1874.1,359.9z M1874.1,411.2l-14.5,25.1h-29l-14.5-25.1l14.5-25.1h29
	L1874.1,411.2z M1874.2,462.4l-14.5,25.1h-29l-14.4-25l14.5-25.1h29L1874.2,462.4z M1874.1,513.8l-14.5,25.1h-29l-14.5-25.1
	l14.5-25.1h29L1874.1,513.8z M1874.1,565.1l-14.5,25.1h-29l-14.5-25.1l14.5-25.1h29L1874.1,565.1z M1874.2,616.4l-14.5,25.1h-29
	l-14.4-25l14.5-25.1h29L1874.2,616.4z M1874.1,667.8l-14.5,25.1h-29l-14.5-25.1l14.5-25.1h29L1874.1,667.8z M1874.1,719.1
	l-14.5,25.1h-29l-14.5-25.1l14.5-25.1h29L1874.1,719.1z M1874.2,770.4l-14.5,25.1h-29l-14.4-25l14.5-25.1h29L1874.2,770.4z
	 M1874.1,821.8l-14.5,25.1h-29l-14.5-25.1l14.5-25.1h29L1874.1,821.8z M1874.1,873.1l-14.5,25.1h-29l-14.5-25.1l14.5-25.1h29
	L1874.1,873.1z M1874.2,924.4l-14.5,25.1h-29l-14.4-25l14.5-25.1h29L1874.2,924.4z M1874.1,975.7l-14.5,25.1h-29l-14.5-25.1
	l14.5-25.1h29L1874.1,975.7z M1786.2,1026.5l-14.5-25.1l14.5-25.1h29l14.5,25.1l-14.5,25.1H1786.2z M1770.7,1052.1h-29l-14.5-25.1
	l14.5-25.1h29l14.5,25.1L1770.7,1052.1z M1697.2,1026.5l-14.5-25.1l14.5-25.1h29l14.5,25.1l-14.5,25.1H1697.2z M1681.7,1052.1h-29
	l-14.5-25.1l14.5-25.1h29l14.5,25.1L1681.7,1052.1z M1608.3,1026.5l-14.5-25.1l14.5-25.1h29l14.5,25.1l-14.5,25.1H1608.3z
	 M1592.8,1052.1h-29l-14.5-25.1l14.5-25.1h29l14.5,25.1L1592.8,1052.1z M1519.3,1026.5l-14.5-25.1l14.5-25.1h29l14.5,25.1
	l-14.5,25.1H1519.3z M1503.8,1052.1h-29l-14.5-25.1l14.5-25.1h29l14.5,25.1L1503.8,1052.1z M1430.3,1026.5l-14.5-25.1l14.5-25.1h29
	l14.5,25.1l-14.5,25.1H1430.3z M1414.8,1052.1h-28.9l-14.5-25.1l14.5-25.1h28.9l14.5,25.1L1414.8,1052.1z M1341.4,1026.5l-14.5-25.1
	l14.5-25.1h29l14.5,25.1l-14.5,25.1H1341.4z M1325.9,1052.1h-29l-14.5-25.1l14.5-25.1h29l14.5,25.1L1325.9,1052.1z M1236.9,1052.1
	h-29l-14.5-25.1l14.5-25.1h29l14.5,25.1L1236.9,1052.1z M1163.4,1026.5l-14.5-25.1l14.5-25.1h29l14.5,25.1l-14.5,25.1H1163.4z
	 M1147.9,1052.1H1119l-14.5-25.1l14.5-25.1h28.9l14.5,25.1L1147.9,1052.1z M1074.5,1026.5l-14.5-25.1l14.5-25.1h29l14.5,25.1
	l-14.5,25.1H1074.5z M1059,1052.1h-29l-14.5-25.1l14.5-25.1h29l14.5,25.1L1059,1052.1z M926.6,975.7l14.5-25.1h29l14.5,25.1
	l-14.5,25.1h-29L926.6,975.7z M926.5,924.5l14.5-25.1h29l14.4,25L970,949.5h-29L926.5,924.5z M926.6,873.1l14.5-25.1h29l14.5,25.1
	L970,898.2h-29L926.6,873.1z M926.6,821.8l14.5-25.1h29l14.5,25.1L970,846.8h-29L926.6,821.8z M926.5,770.5l14.5-25.1h29l14.4,25
	L970,795.5h-29L926.5,770.5z M926.6,719.1l14.5-25.1h29l14.5,25.1L970,744.2h-29L926.6,719.1z M926.6,667.8l14.5-25.1h29l14.5,25.1
	L970,692.9h-29L926.6,667.8z M926.5,616.5l14.5-25.1h29l14.4,25L970,641.5h-29L926.5,616.5z M926.6,565.1l14.5-25.1h29l14.5,25.1
	L970,590.2h-29L926.6,565.1z M926.6,513.8l14.5-25.1h29l14.5,25.1L970,538.9h-29L926.6,513.8z M926.5,462.6l14.5-25.1h29l14.4,25
	L970,487.6h-29L926.5,462.6z M926.6,411.2l14.5-25.1h29l14.5,25.1L970,436.3h-29L926.6,411.2z M926.6,359.9l14.5-25.1h29l14.5,25.1
	L970,384.9h-29L926.6,359.9z M926.5,308.6l14.5-25.1h29l14.4,25L970,333.6h-29L926.5,308.6z M926.6,257.2l14.5-25.1h29l14.5,25.1
	L970,282.3h-29L926.6,257.2z M926.6,205.9l14.5-25.1h29l14.5,25.1L970,231h-29L926.6,205.9z M882.1,128.9l14.5-25.1h29l14.5,25.1
	L925.6,154h-29L882.1,128.9z M896.5,52.5h29L940,77.6l-14.5,25.1h-29l-14.5-25.1L896.5,52.5z M940,26.3l-14.5,25.1h-28.9l-14.5-25.1
	l14.5-25.1h28.9L940,26.3z M1028.9,26.3l-14.5,25.1h-29L971,26.3l14.5-25.1h29L1028.9,26.3z M1117.9,26.3l-14.5,25.1h-29L1060,26.3
	l14.5-25.1h29L1117.9,26.3z M1206.9,26.3l-14.5,25.1h-28.9L1149,26.3l14.5-25.1h28.9L1206.9,26.3z M1295.8,26.3l-14.5,25.1h-29
	l-1-1.7l-13.5-23.3l14.5-25.1h29L1295.8,26.3z M1384.8,26.3l-14.5,25.1h-29l-14.5-25.1l14.5-25.1h29L1384.8,26.3z M1473.8,26.3
	l-14.5,25.1h-28.9l-14.5-25.1l14.5-25.1h28.9L1473.8,26.3z M1562.7,26.3l-14.5,25.1h-29l-14.5-25.1l14.5-25.1h29L1562.7,26.3z
	 M1651.7,26.3l-14.5,25.1h-29l-14.5-25.1l14.5-25.1h29L1651.7,26.3z M1740.6,26.3l-14.5,25.1h-29l-14.5-25.1l14.5-25.1h29
	L1740.6,26.3z M1829.6,26.3l-14.5,25.1h-29l-14.5-25.1l14.5-25.1h29L1829.6,26.3z M1918.6,26.3l-14.5,25.1h-29l-14.5-25.1l14.5-25.1
	h29L1918.6,26.3z M1904.2,102.6h-29l-14.5-25.1l14.5-25.1h29l14.5,25.1L1904.2,102.6z M1918.6,128.9l-14.5,25.1h-29l-14.5-25.1
	l14.5-25.1h29L1918.6,128.9z M1918.6,180.2l-14.5,25.1h-29l-14.5-25.1l14.5-25.1h29L1918.6,180.2z M1904.2,256.6h-29l-14.5-25.1
	l14.5-25.1h29l14.5,25.1L1904.2,256.6z M1918.6,282.9l-14.5,25.1h-29l-14.5-25.1l14.5-25.1h29L1918.6,282.9z M1918.6,334.2
	l-14.5,25.1h-29l-14.5-25.1l14.5-25.1h29L1918.6,334.2z M1904.2,410.6h-29l-14.5-25.1l14.5-25.1h29l14.5,25.1L1904.2,410.6z
	 M1918.6,436.8l-14.5,25.1h-29l-14.5-25.1l14.5-25.1h29L1918.6,436.8z M1918.6,488.2l-14.5,25.1h-29l-14.5-25.1l14.5-25.1h29
	L1918.6,488.2z M1904.2,564.6h-29l-14.5-25.1l14.5-25.1h29l14.5,25.1L1904.2,564.6z M1918.6,590.8l-14.5,25.1h-29l-14.5-25.1
	l14.5-25.1h29L1918.6,590.8z M1918.6,642.1l-14.5,25.1h-29l-14.5-25.1l14.5-25.1h29L1918.6,642.1z M1904.2,718.5h-29l-14.5-25.1
	l14.5-25.1h29l14.5,25.1L1904.2,718.5z M1918.6,744.8l-14.5,25.1h-29l-14.5-25.1l14.5-25.1h29L1918.6,744.8z M1918.6,796.1
	l-14.5,25.1h-29l-14.5-25.1l14.5-25.1h29L1918.6,796.1z M1904.2,872.5h-29l-14.5-25.1l14.5-25.1h29l14.5,25.1L1904.2,872.5z
	 M1918.6,898.8l-14.5,25.1h-29l-14.5-25.1l14.5-25.1h29L1918.6,898.8z M1918.6,950.1l-14.5,25.1h-29l-14.5-25.1l14.5-25.1h29
	L1918.6,950.1z M1904.2,1026.5h-29l-14.5-25.1l14.5-25.1h29l14.5,25.1L1904.2,1026.5z M1860.7,1052.7l14.5-25.1h29l14.5,25.1
	l-14.5,25.1h-29L1860.7,1052.7z M1771.8,1052.7l14.5-25.1h29l14.5,25.1l-14.5,25.1h-29L1771.8,1052.7z M1682.8,1052.7l14.5-25.1h29
	l14.5,25.1l-14.5,25.1h-29L1682.8,1052.7z M1593.8,1052.7l14.5-25.1h29l14.5,25.1l-14.5,25.1h-29L1593.8,1052.7z M1504.9,1052.7
	l14.5-25.1h29l14.5,25.1l-14.5,25.1h-29L1504.9,1052.7z M1415.9,1052.7l14.5-25.1h29l14.5,25.1l-14.5,25.1h-29L1415.9,1052.7z
	 M1326.9,1052.7l14.5-25.1h28.9l14.5,25.1l-14.5,25.1h-28.9L1326.9,1052.7z M1238,1052.7l14.5-25.1h29l1,1.7l13.5,23.3l-14.5,25.1
	h-29L1238,1052.7z M1149,1052.7l14.5-25.1h29l14.5,25.1l-14.5,25.1h-29L1149,1052.7z M1060.1,1052.7l14.5-25.1h29l14.5,25.1
	l-14.5,25.1h-29L1060.1,1052.7z M971.1,1052.7l14.5-25.1h29l1,1.7l13.5,23.3l-14.5,25.1h-29L971.1,1052.7z M882.1,1052.7l14.5-25.1
	h29l14.5,25.1l-14.5,25.1h-29L882.1,1052.7z M896.5,976.3h29l14.5,25.1l-14.5,25.1h-29l-14.5-25.1L896.5,976.3z M882.1,950.1
	l14.5-25.1h28.9l14.5,25.1l-14.5,25.1h-28.9L882.1,950.1z M882.1,898.8l14.5-25.1h29l14.5,25.1l-14.5,25.1h-29L882.1,898.8z
	 M896.5,822.4h29l14.5,25.1l-14.5,25.1h-29l-14.5-25.1L896.5,822.4z M882.1,796.1l14.5-25.1h28.9l14.5,25.1l-14.5,25.1h-28.9
	L882.1,796.1z M882.1,744.8l14.5-25.1h29l14.5,25.1l-14.5,25.1h-29L882.1,744.8z M896.5,668.4h29l14.5,25.1l-14.5,25.1h-29
	l-14.5-25.1L896.5,668.4z M882.1,642.1l14.5-25.1h28.9l14.5,25.1l-14.5,25.1h-28.9L882.1,642.1z M882.1,590.8l14.5-25.1h29
	l14.5,25.1l-14.5,25.1h-29L882.1,590.8z M896.5,514.4h29l14.5,25.1l-14.5,25.1h-29l-14.5-25.1L896.5,514.4z M882.1,488.2l14.5-25.1
	h28.9l14.5,25.1l-14.5,25.1h-28.9L882.1,488.2z M882.1,436.8l14.5-25.1h29l14.5,25.1l-14.5,25.1h-29L882.1,436.8z M896.5,360.4h29
	l14.5,25.1l-14.5,25.1h-29l-14.5-25.1L896.5,360.4z M882.1,334.2l14.5-25.1h28.9l14.5,25.1l-14.5,25.1h-28.9L882.1,334.2z
	 M882.1,282.9l14.5-25.1h29l14.5,25.1l-14.5,25.1h-29L882.1,282.9z M896.5,206.5h29l14.5,25.1l-14.5,25.1h-29l-14.5-25.1
	L896.5,206.5z"/>
</svg>
